<?xml version="1.0" encoding="UTF-8" standalone="no"?>
<!-- Created with Inkscape (http://www.inkscape.org/) -->

<svg
   version="1.1"
   id="svg145"
   width="676.05634"
   height="676.05634"
   viewBox="0 0 676.05634 676.05634"
   sodipodi:docname="domiki.svg"
   inkscape:version="1.2 (dc2aedaf03, 2022-05-15)"
   xmlns:inkscape="http://www.inkscape.org/namespaces/inkscape"
   xmlns:sodipodi="http://sodipodi.sourceforge.net/DTD/sodipodi-0.dtd"
   xmlns="http://www.w3.org/2000/svg"
   xmlns:svg="http://www.w3.org/2000/svg">
  <defs
     id="defs149">
    <inkscape:perspective
       sodipodi:type="inkscape:persp3d"
       inkscape:vp_x="0 : 338.02817 : 1"
       inkscape:vp_y="0 : 1000 : 0"
       inkscape:vp_z="676.05634 : 338.02817 : 1"
       inkscape:persp3d-origin="338.02817 : 225.35211 : 1"
       id="perspective213" />
    <clipPath
       clipPathUnits="userSpaceOnUse"
       id="clipPath1367">
      <path
         id="path1369"
         style="fill:#ff0000;fill-opacity:1;fill-rule:nonzero;stroke:none"
         d="M 0,0 V 676.05664 H 676.05664 V 0 Z m 127.41211,108.21484 c 0.41799,0.004 0.49907,0.53916 -0.16211,1.20313 -0.64915,0.65189 -1.38449,1.20933 -2.11914,1.75976 -0.63579,0.47461 -1.32146,0.87251 -2.03711,1.21289 -0.26555,0.11782 -0.53677,0.22307 -0.80078,0.34376 -0.0471,0.0168 -0.0954,0.034 -0.14258,0.0508 -1.34544,0.47807 -1.70146,-0.5968 -0.32031,-0.95899 0.014,-0.004 0.0291,-0.006 0.043,-0.01 0.25981,-0.11874 0.52525,-0.22352 0.78711,-0.33789 0.65561,-0.30976 1.28298,-0.67613 1.86523,-1.10938 0.69639,-0.5215 1.39421,-1.04652 2.00977,-1.66406 0.3465,-0.34762 0.658,-0.49227 0.87695,-0.49024 z m -5.38086,1.48243 c 0.95635,0.0226 0.94081,0.81533 -0.28906,1.03515 -0.25085,0.0448 -0.49863,0.10366 -0.7461,0.16406 -0.27672,0.0812 -0.52514,0.23644 -0.79687,0.33204 -0.8648,0.30747 -1.74689,0.56254 -2.62695,0.82226 -1.67572,0.47579 -3.35471,0.94404 -5.04883,1.34961 -1.38862,0.33243 -1.59333,-0.65434 -0.20508,-0.98828 1.66991,-0.4017 3.32633,-0.86282 4.97852,-1.33203 0.85896,-0.25392 1.72029,-0.5025 2.56445,-0.80274 0.27879,-0.11626 0.54787,-0.2535 0.83594,-0.3457 0.28639,-0.0743 0.57416,-0.14016 0.86523,-0.19336 0.17557,-0.0321 0.33213,-0.0442 0.46875,-0.041 z" />
    </clipPath>
    <clipPath
       clipPathUnits="userSpaceOnUse"
       id="clipPath1377">
      <path
         id="path1379"
         style="fill:#ff0000;fill-opacity:1;fill-rule:nonzero;stroke:none"
         d="m 72.291016,73.90625 v 63.80859 H 266.54492 V 73.90625 Z m 55.121094,34.30859 c 0.41799,0.004 0.49907,0.53916 -0.16211,1.20313 -0.64915,0.65189 -1.38449,1.20933 -2.11914,1.75976 -0.63579,0.47461 -1.32146,0.87251 -2.03711,1.21289 -0.26555,0.11782 -0.53677,0.22307 -0.80078,0.34376 -0.0471,0.0168 -0.0954,0.034 -0.14258,0.0508 -1.34544,0.47807 -1.70146,-0.5968 -0.32031,-0.95899 0.014,-0.004 0.0291,-0.006 0.043,-0.01 0.25981,-0.11874 0.52525,-0.22352 0.78711,-0.33789 0.65561,-0.30976 1.28298,-0.67613 1.86523,-1.10938 0.69639,-0.5215 1.39421,-1.04652 2.00977,-1.66406 0.3465,-0.34762 0.658,-0.49227 0.87695,-0.49024 z m -5.38086,1.48243 c 0.95635,0.0226 0.94081,0.81533 -0.28906,1.03515 -0.25085,0.0448 -0.49863,0.10366 -0.7461,0.16406 -0.27672,0.0812 -0.52514,0.23644 -0.79687,0.33204 -0.8648,0.30747 -1.74689,0.56254 -2.62695,0.82226 -1.67572,0.47579 -3.35471,0.94404 -5.04883,1.34961 -1.38862,0.33243 -1.59333,-0.65434 -0.20508,-0.98828 1.66991,-0.4017 3.32633,-0.86282 4.97852,-1.33203 0.85896,-0.25392 1.72029,-0.5025 2.56445,-0.80274 0.27879,-0.11626 0.54787,-0.2535 0.83594,-0.3457 0.28639,-0.0743 0.57416,-0.14016 0.86523,-0.19336 0.17557,-0.0321 0.33213,-0.0442 0.46875,-0.041 z" />
    </clipPath>
    <clipPath
       clipPathUnits="userSpaceOnUse"
       id="clipPath1387">
      <path
         id="path1389"
         style="fill:#ff0000;fill-opacity:1;fill-rule:nonzero;stroke:none;stroke-width:1.02594"
         d="M 67.630154,86.484311 V 161.51556 L 280.73771,228.00792 V 152.97667 Z M 134.10703,150.058 c 0.43995,0.14127 0.52529,0.70306 -0.17063,1.14989 -0.68326,0.43871 -1.45724,0.75466 -2.23049,1.06382 -0.6692,0.26581 -1.3909,0.43853 -2.14415,0.54389 -0.2795,0.0306 -0.56498,0.0468 -0.84286,0.0808 -0.0496,0.001 -0.10041,0.003 -0.15007,0.004 -1.41614,0.0362 -1.79086,-1.15557 -0.33714,-1.06418 0.0147,5.9e-4 0.0306,0.004 0.0453,0.004 0.27346,-0.0334 0.55284,-0.051 0.82846,-0.0794 0.69006,-0.0945 1.3504,-0.25479 1.96325,-0.49682 0.73298,-0.2928 1.46746,-0.58867 2.11537,-1.00404 0.3647,-0.23383 0.69258,-0.27618 0.92303,-0.20224 z m -5.6636,-0.28469 c 1.0066,0.33668 0.99025,1.1243 -0.30425,0.94022 -0.26403,-0.0376 -0.52483,-0.0601 -0.7853,-0.081 -0.29126,-0.01 -0.55275,0.064 -0.83874,0.0703 -0.91024,0.0235 -1.83867,-0.0112 -2.76499,-0.0404 -1.76377,-0.0745 -3.53098,-0.15768 -5.31412,-0.30847 -1.46159,-0.1236 -1.67705,-1.1776 -0.21586,-1.05563 1.75766,0.14671 3.50112,0.22955 5.24012,0.30295 0.90411,0.0282 1.81069,0.0625 2.6992,0.0395 0.29344,-0.0247 0.57665,-0.0736 0.87986,-0.0712 0.30145,0.0198 0.60434,0.0484 0.9107,0.0908 0.1848,0.0256 0.34958,0.0649 0.49338,0.11294 z" />
    </clipPath>
    <clipPath
       clipPathUnits="userSpaceOnUse"
       id="clipPath1397">
      <path
         id="path1399"
         style="fill:#ff0000;fill-opacity:1;fill-rule:nonzero;stroke:none;stroke-width:1.02552"
         d="m 103.87036,139.72854 v 54.76563 l 147.98979,45.82315 V 185.5517 Z m 30.12709,9.97691 c 0.43959,0.14012 0.52486,0.70167 -0.17049,1.15033 -0.6827,0.44049 -1.45605,0.75849 -2.22867,1.06969 -0.66865,0.26757 -1.38976,0.44218 -2.1424,0.54952 -0.27927,0.0314 -0.56451,0.0483 -0.84217,0.083 -0.0495,0.001 -0.10033,0.003 -0.14995,0.004 -1.41498,0.0399 -1.7894,-1.15086 -0.33686,-1.06329 0.0147,5.6e-4 0.0306,0.003 0.0452,0.004 0.27323,-0.0341 0.55239,-0.0525 0.82779,-0.0816 0.68949,-0.0963 1.34929,-0.25832 1.96164,-0.50198 0.73238,-0.29473 1.46626,-0.59251 2.11364,-1.0096 0.36441,-0.23479 0.69201,-0.27799 0.92228,-0.20466 z m -5.65897,-0.26981 c 1.00578,0.33402 0.98942,1.1217 -0.30401,0.94103 -0.26382,-0.0369 -0.52438,-0.0587 -0.78465,-0.0789 -0.29102,-0.009 -0.55229,0.0654 -0.83806,0.0725 -0.9095,0.0259 -1.83717,-0.006 -2.76273,-0.0332 -1.76233,-0.0699 -3.5281,-0.14839 -5.30978,-0.2945 -1.46039,-0.11976 -1.67568,-1.17319 -0.21568,-1.05506 1.75622,0.14209 3.49825,0.22037 5.23583,0.28918 0.90338,0.0258 1.80921,0.0576 2.697,0.0324 0.2932,-0.0255 0.57619,-0.0751 0.87914,-0.0735 0.30119,0.019 0.60384,0.0468 0.90996,0.0884 0.18464,0.0251 0.3493,0.064 0.49298,0.11165 z" />
    </clipPath>
  </defs>
  <sodipodi:namedview
     id="namedview147"
     pagecolor="#505050"
     bordercolor="#eeeeee"
     borderopacity="1"
     inkscape:showpageshadow="0"
     inkscape:pageopacity="0"
     inkscape:pagecheckerboard="0"
     inkscape:deskcolor="#505050"
     showgrid="false"
     inkscape:zoom="0.61903125"
     inkscape:cx="568.63042"
     inkscape:cy="455.55051"
     inkscape:window-width="1920"
     inkscape:window-height="1017"
     inkscape:window-x="-8"
     inkscape:window-y="-8"
     inkscape:window-maximized="1"
     inkscape:current-layer="g151" />
  <g
     inkscape:groupmode="layer"
     inkscape:label="Image"
     id="g151">
    <path
       style="fill:#ff0000"
       d="M 72.290373,137.71518 266.54551,73.9058"
       id="path344"
       clip-path="url(#clipPath1377)"
       transform="matrix(1.185552,0,0,1.1895271,-53.887909,-55.98761)" />
    <path
       style="fill:#ff0000;stroke-width:1.18754"
       d="M 23.078116,102.78415 22.120528,671.33596"
       id="path354" />
    <path
       style="fill:#ff0000;stroke-width:1.18754"
       d="M 261.93613,21.656822 270.13546,663.7697"
       id="path366" />
    <rect
       style="fill:#ff0000;stroke-width:1.18754"
       id="rect368"
       width="8.6223812"
       height="643.14532"
       x="262.02588"
       y="21.746895" />
    <rect
       style="fill:#ff0000;stroke-width:1.18754"
       id="rect372"
       width="649.55475"
       height="7.526835"
       x="22.06068"
       y="664.13" />
    <rect
       style="fill:#ff0000;stroke-width:1.18754"
       id="rect374"
       width="8.5371609"
       height="566.10364"
       x="383.96857"
       y="102.90424" />
    <rect
       style="fill:#ff0000;stroke-width:1.18754"
       id="rect376"
       width="8.5359745"
       height="374.59082"
       x="423.10992"
       y="290.25974" />
    <path
       id="rect378"
       style="fill:#ff0000;stroke-width:1.18256"
       d="m 583.44823,237.88367 v 427.12855 h 8.63229 V 245.76197 c -0.0467,-0.30624 -0.068,-0.65149 -0.0555,-1.04084 0.008,-0.20295 0.0282,-0.40403 0.0555,-0.60406 v -6.2334 z" />
    <rect
       style="fill:#ff0000;stroke-width:1.18754"
       id="rect380"
       width="8.5359745"
       height="375.53079"
       x="663.16589"
       y="293.75311" />
    <rect
       style="fill:#ff0000;stroke-width:1.18754"
       id="rect440"
       width="8.5359745"
       height="561.10571"
       x="22.120529"
       y="103.38465" />
    <path
       id="rect442"
       style="fill:#ff0000;stroke-width:0.585963"
       inkscape:transform-center-x="0.48396275"
       inkscape:transform-center-y="0.28052004"
       transform="matrix(1.1263667,-0.37114813,0,1.1895271,-53.887909,-55.98761)"
       d="m 280.73771,152.97667 -213.107556,0.002 v 8.53711 l 213.107556,-0.002 z"
       clip-path="url(#clipPath1387)" />
    <path
       id="rect442-4"
       style="fill:#ff0000;stroke-width:0.407183"
       inkscape:transform-center-x="0.33633509"
       inkscape:transform-center-y="0.1940564"
       transform="matrix(1.1272879,-0.36832193,0,1.1895271,-53.887909,-55.98761)"
       d="m 251.86015,185.5517 -147.98979,10e-4 v 8.94141 l 147.98979,8.9e-4 z"
       clip-path="url(#clipPath1397)" />
    <rect
       style="fill:#ff0000;stroke-width:0.483622"
       id="rect442-4-4"
       width="175.50595"
       height="10.636553"
       x="66.606789"
       y="188.40189"
       ry="0"
       transform="matrix(0.95054872,-0.31057547,0,1,0,0)"
       inkscape:transform-center-x="0.33635225"
       inkscape:transform-center-y="0.19405129" />
    <rect
       style="fill:#ff0000;stroke-width:0.483622"
       id="rect442-4-4-1"
       width="175.50595"
       height="10.636553"
       x="65.09568"
       y="268.39941"
       ry="0"
       transform="matrix(0.95054872,-0.31057547,0,1,0,0)"
       inkscape:transform-center-x="0.33635241"
       inkscape:transform-center-y="0.19408188" />
    <rect
       style="fill:#ff0000;stroke-width:0.483622"
       id="rect442-4-4-1-5"
       width="175.50595"
       height="10.636553"
       x="65.347527"
       y="307.8703"
       ry="0"
       transform="matrix(0.95054872,-0.31057547,0,1,0,0)"
       inkscape:transform-center-x="0.33635079"
       inkscape:transform-center-y="0.19412125" />
    <rect
       style="fill:#ff0000;stroke-width:0.483622"
       id="rect442-4-4-1-5-9"
       width="175.50595"
       height="10.636553"
       x="65.599396"
       y="349.50302"
       ry="0"
       transform="matrix(0.95054872,-0.31057547,0,1,0,0)"
       inkscape:transform-center-x="0.33634963"
       inkscape:transform-center-y="0.19411775" />
    <rect
       style="fill:#ff0000;stroke-width:0.483622"
       id="rect442-4-4-1-5-9-5"
       width="175.50595"
       height="10.636553"
       x="65.599396"
       y="428.28833"
       ry="0"
       transform="matrix(0.95054872,-0.31057547,0,1,0,0)"
       inkscape:transform-center-x="0.33634963"
       inkscape:transform-center-y="0.19405389" />
    <rect
       style="fill:#ff0000;stroke-width:0.483622"
       id="rect442-4-4-1-5-9-5-0"
       width="175.50595"
       height="10.636553"
       x="65.851227"
       y="469.4407"
       ry="0"
       transform="matrix(0.95054872,-0.31057547,0,1,0,0)"
       inkscape:transform-center-x="0.33636388"
       inkscape:transform-center-y="0.19408631" />
    <rect
       style="fill:#ff0000;stroke-width:0.483622"
       id="rect442-4-4-1-5-9-5-0-8"
       width="175.50595"
       height="10.636553"
       x="65.851227"
       y="509.31378"
       ry="0"
       transform="matrix(0.95054872,-0.31057547,0,1,0,0)"
       inkscape:transform-center-x="0.33636388"
       inkscape:transform-center-y="0.1940816" />
    <rect
       style="fill:#ff0000;stroke-width:0.483622"
       id="rect442-4-4-1-5-9-5-0-8-6"
       width="175.50595"
       height="10.636553"
       x="65.851227"
       y="549.18683"
       ry="0"
       transform="matrix(0.95054872,-0.31057547,0,1,0,0)"
       inkscape:transform-center-x="0.33636388"
       inkscape:transform-center-y="0.19408847" />
    <rect
       style="fill:#ff0000;stroke-width:0.483622"
       id="rect442-4-4-1-5-9-5-0-8-6-6"
       width="175.50595"
       height="10.636553"
       x="65.599396"
       y="629.81567"
       ry="0"
       transform="matrix(0.95054872,-0.31057547,0,1,0,0)"
       inkscape:transform-center-x="0.33634102"
       inkscape:transform-center-y="0.19405511" />
    <rect
       style="fill:#ff0000;stroke-width:0.385591"
       id="rect442-3"
       width="147.11278"
       height="9.1666965"
       x="-472.14059"
       y="-158.35565"
       ry="0"
       transform="matrix(-0.83193795,-0.55486867,0,1,0,0)"
       inkscape:transform-center-x="-0.24784408"
       inkscape:transform-center-y="0.22886646" />
    <rect
       style="fill:#ff0000;stroke-width:0.149791"
       id="rect442-3-7"
       width="57.488819"
       height="9.5063276"
       x="-419.66077"
       y="-114.67699"
       ry="0"
       transform="matrix(-0.8362535,-0.54834304,0,1,0,0)"
       inkscape:transform-center-x="-0.097323657"
       inkscape:transform-center-y="0.088349201" />
    <rect
       style="fill:#ff0000;stroke-width:0.149791"
       id="rect442-3-7-9"
       width="57.488819"
       height="9.5063276"
       x="-419.96457"
       y="-34.081413"
       ry="0"
       transform="matrix(-0.8362535,-0.54834304,0,1,0,0)"
       inkscape:transform-center-x="-0.097429799"
       inkscape:transform-center-y="0.08843202" />
    <rect
       style="fill:#ff0000;stroke-width:0.149791"
       id="rect442-3-7-9-0"
       width="57.488819"
       height="9.5063276"
       x="-419.76202"
       y="5.7736845"
       ry="0"
       transform="matrix(-0.8362535,-0.54834304,0,1,0,0)"
       inkscape:transform-center-x="-0.097350534"
       inkscape:transform-center-y="0.088380032" />
    <rect
       style="fill:#ff0000;stroke-width:0.149791"
       id="rect442-3-7-9-0-9"
       width="57.488819"
       height="9.5063276"
       x="-418.74991"
       y="85.816872"
       ry="0"
       transform="matrix(-0.8362535,-0.54834304,0,1,0,0)"
       inkscape:transform-center-x="-0.097343464"
       inkscape:transform-center-y="0.088376383" />
    <rect
       style="fill:#ff0000;stroke-width:0.149791"
       id="rect442-3-7-9-0-9-3"
       width="57.488819"
       height="9.5063276"
       x="-419.35724"
       y="127.26611"
       ry="0"
       transform="matrix(-0.8362535,-0.54834304,0,1,0,0)"
       inkscape:transform-center-x="-0.097386636"
       inkscape:transform-center-y="0.088389954" />
    <rect
       style="fill:#ff0000;stroke-width:0.149791"
       id="rect442-3-7-9-0-9-3-5"
       width="57.488819"
       height="9.5063276"
       x="-419.96457"
       y="167.01694"
       ry="0"
       transform="matrix(-0.8362535,-0.54834304,0,1,0,0)"
       inkscape:transform-center-x="-0.097429799"
       inkscape:transform-center-y="0.088434629" />
    <rect
       style="fill:#ff0000;stroke-width:0.149791"
       id="rect442-3-7-9-0-9-3-5-9"
       width="57.488819"
       height="9.5063276"
       x="-419.55963"
       y="207.83229"
       ry="0"
       transform="matrix(-0.8362535,-0.54834304,0,1,0,0)"
       inkscape:transform-center-x="-0.097368581"
       inkscape:transform-center-y="0.088406237" />
    <rect
       style="fill:#ff0000;stroke-width:0.149791"
       id="rect442-3-7-9-0-9-3-5-9-5"
       width="57.488819"
       height="9.5063276"
       x="-418.90607"
       y="286.90289"
       ry="0"
       transform="matrix(-0.8362535,-0.54834304,0,1,0,0)"
       inkscape:transform-center-x="-0.097398002"
       inkscape:transform-center-y="0.088427595" />
    <rect
       style="fill:#ff0000;stroke-width:0.149791"
       id="rect442-3-7-9-0-9-3-5-9-5-7"
       width="57.488819"
       height="9.5063276"
       x="-418.90607"
       y="328.45743"
       ry="0"
       transform="matrix(-0.8362535,-0.54834304,0,1,0,0)"
       inkscape:transform-center-x="-0.097398002"
       inkscape:transform-center-y="0.088452864" />
    <rect
       style="fill:#ff0000;stroke-width:0.149791"
       id="rect442-3-7-9-0-9-3-5-9-5-7-4"
       width="57.488819"
       height="9.5063276"
       x="-419.19223"
       y="367.21268"
       ry="0"
       transform="matrix(-0.8362535,-0.54834304,0,1,0,0)"
       inkscape:transform-center-x="-0.097321"
       inkscape:transform-center-y="0.088364718" />
    <path
       id="rect442-5"
       style="fill:#ff0000;stroke-width:0.678261"
       inkscape:transform-center-x="0.48395985"
       inkscape:transform-center-y="0.28052647"
       d="m 653.83112,214.95739 c -0.044,0.007 -0.081,0.0143 -0.12505,0.0208 -0.004,0.0152 -0.008,0.0312 -0.0118,0.0466 0.0455,-0.0221 0.0911,-0.0447 0.13661,-0.0674 z m -12.95078,12.72239 c -0.32521,0.0546 -0.64996,0.1112 -0.97483,0.16726 -0.0945,0.0288 -0.188,0.0596 -0.28249,0.0884 0.0194,-9.3e-4 0.0385,-0.005 0.0578,-0.007 0.1667,-0.0345 0.33344,-0.0681 0.50016,-0.10237 0.0487,-0.0167 0.095,-0.0265 0.1366,-0.0279 0.008,-9.3e-4 0.0156,-0.002 0.0232,-0.003 0.17994,-0.0369 0.3596,-0.0746 0.53952,-0.11145 z m -23.06732,4.72091 c -0.0198,0.002 -0.0597,0.0109 -0.0788,0.014 0.0204,0.0471 0.0395,0.0948 0.0602,0.14174 0.008,-0.0518 0.0121,-0.10378 0.0184,-0.15565 z m 5.44844,0.16264 c -0.01,0.046 -0.0164,0.0833 -0.0254,0.13011 0.0118,-0.003 0.0233,-0.008 0.0348,-0.0119 -0.004,-0.0385 -0.006,-0.0791 -0.01,-0.11858 z m -30.57659,1.11286 -169.53625,55.86362 v 10.15514 l 168.94348,-55.6708 c 0.0454,-0.30306 0.10703,-0.60326 0.16903,-0.90376 0.058,-0.36111 0.13088,-0.72053 0.18294,-1.08266 0.0347,-0.2761 0.0341,-0.55267 0.0602,-0.8294 0.0522,-0.31594 0.0728,-0.63533 0.0857,-0.95489 0.0118,-0.33498 0.0134,-0.67084 0.0138,-1.00598 0,-0.43772 1.7e-4,-0.87493 0,-1.31266 -2.1e-4,-0.68961 -0.002,-1.37811 -0.002,-2.06775 -0.008,-0.73043 0.0457,-1.46143 0.0833,-2.19086 z" />
    <rect
       style="fill:#ff0000;stroke-width:0.257783"
       id="rect442-3-7-9-0-9-3-5-9-5-7-3"
       width="97.294662"
       height="10.366353"
       x="-818.21863"
       y="-177.30247"
       ry="0"
       transform="matrix(-0.82137054,-0.57039498,0,1,0,0)"
       inkscape:transform-center-x="-0.16138858"
       inkscape:transform-center-y="0.15515926" />
    <rect
       style="fill:#ff0000;stroke-width:0.218414"
       id="rect442-3-7-9-0-9-3-5-9-5-7-3-1"
       width="112.55915"
       height="11.500475"
       x="477.18912"
       y="478.61746"
       ry="0"
       transform="matrix(0.95060589,-0.31040045,0,1,0,0)"
       inkscape:transform-center-x="0.21441128"
       inkscape:transform-center-y="0.096923767" />
    <rect
       style="fill:#ff0000;stroke-width:0.218414"
       id="rect442-3-7-9-0-9-3-5-9-5-7-3-1-2"
       width="112.55915"
       height="11.500475"
       x="477.17252"
       y="532.02917"
       ry="0"
       transform="matrix(0.95060589,-0.31040045,0,1,0,0)"
       inkscape:transform-center-x="0.21447013"
       inkscape:transform-center-y="0.096964255" />
    <rect
       style="fill:#ff0000;stroke-width:0.218414"
       id="rect442-3-7-9-0-9-3-5-9-5-7-3-1-5"
       width="112.55915"
       height="11.500475"
       x="477.17252"
       y="559.71423"
       ry="0"
       transform="matrix(0.95060589,-0.31040045,0,1,0,0)"
       inkscape:transform-center-x="0.21447013"
       inkscape:transform-center-y="0.096989509" />
    <rect
       style="fill:#ff0000;stroke-width:0.218414"
       id="rect442-3-7-9-0-9-3-5-9-5-7-3-1-0"
       width="112.55915"
       height="11.500475"
       x="477.17252"
       y="586.71979"
       ry="0"
       transform="matrix(0.95060589,-0.31040045,0,1,0,0)"
       inkscape:transform-center-x="0.21443573"
       inkscape:transform-center-y="0.096911996" />
    <rect
       style="fill:#ff0000;stroke-width:0.218414"
       id="rect442-3-7-9-0-9-3-5-9-5-7-3-1-1"
       width="112.55915"
       height="11.500475"
       x="476.99438"
       y="639.65662"
       ry="0"
       transform="matrix(0.95060589,-0.31040045,0,1,0,0)"
       inkscape:transform-center-x="0.21449978"
       inkscape:transform-center-y="0.096971996" />
    <rect
       style="fill:#ff0000;stroke-width:0.218414"
       id="rect442-3-7-9-0-9-3-5-9-5-7-3-1-17"
       width="112.55915"
       height="11.500475"
       x="477.17252"
       y="693.0437"
       ry="0"
       transform="matrix(0.95060589,-0.31040045,0,1,0,0)"
       inkscape:transform-center-x="0.21447013"
       inkscape:transform-center-y="0.096974101" />
    <rect
       style="fill:#ff0000;stroke-width:0.218414"
       id="rect442-3-7-9-0-9-3-5-9-5-7-3-1-6"
       width="112.55915"
       height="11.500475"
       x="477.17252"
       y="720.72876"
       ry="0"
       transform="matrix(0.95060589,-0.31040045,0,1,0,0)"
       inkscape:transform-center-x="0.21447013"
       inkscape:transform-center-y="0.09699357" />
    <rect
       style="fill:#ff0000;stroke-width:0.218414"
       id="rect442-3-7-9-0-9-3-5-9-5-7-3-1-3"
       width="112.55915"
       height="11.500475"
       x="477.35056"
       y="773.26654"
       ry="0"
       transform="matrix(0.95060589,-0.31040045,0,1,0,0)"
       inkscape:transform-center-x="0.2144931"
       inkscape:transform-center-y="0.096873044" />
    <rect
       style="fill:#ff0000;stroke-width:0.110429"
       id="rect442-3-7-9-0-9-3-5-9-5-7-3-3"
       width="38.179802"
       height="9.3550158"
       x="-763.86462"
       y="-113.98335"
       ry="0"
       transform="matrix(-0.84220815,-0.53915252,0,1,0,0)"
       inkscape:transform-center-x="-0.072811832"
       inkscape:transform-center-y="0.064561177" />
    <rect
       style="fill:#ff0000;stroke-width:0.110429"
       id="rect442-3-7-9-0-9-3-5-9-5-7-3-3-4"
       width="38.179802"
       height="9.3550158"
       x="-763.65161"
       y="-60.844406"
       ry="0"
       transform="matrix(-0.84220815,-0.53915252,0,1,0,0)"
       inkscape:transform-center-x="-0.072938711"
       inkscape:transform-center-y="0.064645495" />
    <rect
       style="fill:#ff0000;stroke-width:0.110429"
       id="rect442-3-7-9-0-9-3-5-9-5-7-3-3-2"
       width="38.179802"
       height="9.3550158"
       x="-763.5094"
       y="-33.144859"
       ry="0"
       transform="matrix(-0.84220815,-0.53915252,0,1,0,0)"
       inkscape:transform-center-x="-0.072851952"
       inkscape:transform-center-y="0.06458372" />
    <rect
       style="fill:#ff0000;stroke-width:0.110429"
       id="rect442-3-7-9-0-9-3-5-9-5-7-3-3-6"
       width="38.179802"
       height="9.3550158"
       x="-763.08313"
       y="20.289175"
       ry="0"
       transform="matrix(-0.84220815,-0.53915252,0,1,0,0)"
       inkscape:transform-center-x="-0.072961096"
       inkscape:transform-center-y="0.064656788" />
    <rect
       style="fill:#ff0000;stroke-width:0.110429"
       id="rect442-3-7-9-0-9-3-5-9-5-7-3-3-7"
       width="38.179802"
       height="9.3550158"
       x="-762.94086"
       y="73.089554"
       ry="0"
       transform="matrix(-0.84220815,-0.53915252,0,1,0,0)"
       inkscape:transform-center-x="-0.07282293"
       inkscape:transform-center-y="0.064573929" />
    <rect
       style="fill:#ff0000;stroke-width:0.110429"
       id="rect442-3-7-9-0-9-3-5-9-5-7-3-3-20"
       width="38.179802"
       height="9.3550158"
       x="-762.79877"
       y="99.8283"
       ry="0"
       transform="matrix(-0.84220815,-0.53915252,0,1,0,0)"
       inkscape:transform-center-x="-0.072899981"
       inkscape:transform-center-y="0.064610726" />
    <rect
       style="fill:#ff0000;stroke-width:0.110429"
       id="rect442-3-7-9-0-9-3-5-9-5-7-3-3-9"
       width="38.179802"
       height="9.3550158"
       x="-763.65161"
       y="153.89378"
       ry="0"
       transform="matrix(-0.84220815,-0.53915252,0,1,0,0)"
       inkscape:transform-center-x="-0.072938711"
       inkscape:transform-center-y="0.064641794" />
    <rect
       style="fill:#ff0000;stroke-width:0.110429"
       id="rect442-3-7-9-0-9-3-5-9-5-7-3-3-5"
       width="38.179802"
       height="9.3550158"
       x="-763.36731"
       y="180.58908"
       ry="0"
       transform="matrix(-0.84220815,-0.53915252,0,1,0,0)"
       inkscape:transform-center-x="-0.072929002"
       inkscape:transform-center-y="0.064646128" />
    <rect
       style="fill:#ff0000;stroke-width:0.110429"
       id="rect442-3-7-9-0-9-3-5-9-5-7-3-3-98"
       width="38.179802"
       height="9.3550158"
       x="-763.22516"
       y="208.28865"
       ry="0"
       transform="matrix(-0.84220815,-0.53915252,0,1,0,0)"
       inkscape:transform-center-x="-0.072893644"
       inkscape:transform-center-y="0.064633478" />
  </g>
</svg>
