<?xml version="1.0" encoding="UTF-8" standalone="no"?>
<svg
   width="101"
   height="105"
   viewBox="0 0 101 105"
   version="1.1"
   id="svg23"
   sodipodi:docname="inst.svg"
   inkscape:version="1.2 (dc2aedaf03, 2022-05-15)"
   xmlns:inkscape="http://www.inkscape.org/namespaces/inkscape"
   xmlns:sodipodi="http://sodipodi.sourceforge.net/DTD/sodipodi-0.dtd"
   xmlns="http://www.w3.org/2000/svg"
   xmlns:svg="http://www.w3.org/2000/svg">
  <defs
     id="defs27" />
  <sodipodi:namedview
     id="namedview25"
     pagecolor="#505050"
     bordercolor="#eeeeee"
     borderopacity="1"
     inkscape:showpageshadow="0"
     inkscape:pageopacity="0"
     inkscape:pagecheckerboard="0"
     inkscape:deskcolor="#505050"
     showgrid="false"
     inkscape:zoom="3.8761904"
     inkscape:cx="89.004916"
     inkscape:cy="80.233417"
     inkscape:window-width="1920"
     inkscape:window-height="1017"
     inkscape:window-x="-8"
     inkscape:window-y="-8"
     inkscape:window-maximized="1"
     inkscape:current-layer="svg23" />
  <path
     d="m 13.986009,4.5184195 c 0,0.2851306 -0.474623,0.02569 -1.425654,0.3040663 C 11.776505,4.8328542 9.8666481,5.7087105 8.3165739,6.4821923 6.1563201,7.5599863 4.933384,8.1984333 3.9540896,9.98698 3.2521497,11.270068 2.7446018,12.685599 2.4993894,12.846309 2.254177,13.007019 1.8285547,15.456551 1.5532739,18.289714 1.2774748,21.122876 1.0524808,26.123549 1.0529992,29.402552 c 5.184e-4,3.279004 0.2125519,8.155256 0.4717616,10.836004 0.2597282,2.680746 0.6848321,5.013634 0.9455971,5.184194 0.2612834,0.17056 1.0503178,1.359814 1.7543314,2.642902 0.9678891,1.764182 1.9601438,2.680228 4.0721847,3.758541 1.5360768,0.784368 3.444379,1.425654 4.240671,1.425654 0.79681,0 1.448464,0.233288 1.448464,0.518419 0,0.33127 4.493141,0.51842 12.442066,0.51842 6.910531,0 12.442067,-0.204777 12.442067,-0.460876 0,-0.252988 0.875092,-0.620548 1.944073,-0.815992 1.069499,-0.195444 2.893817,-0.906715 4.05404,-1.580142 1.160741,-0.673946 2.735181,-2.127075 3.499331,-3.229753 0.76415,-1.10216 1.389364,-2.380583 1.389364,-2.84042 0,-0.460356 0.291352,-0.933674 0.648025,-1.052392 0.498201,-0.165894 0.648023,-3.652784 0.648023,-15.096374 0,-9.327921 -0.19337,-15.018092 -0.518419,-15.249826 C 50.249448,13.757172 49.438122,12.444016 48.732035,11.04221 47.873014,9.3371281 46.701386,8.0203428 45.192266,7.0633405 43.951689,6.2763797 42.021614,5.4780138 40.903383,5.2893091 39.785152,5.100086 40.918106,5.2513053 39.22958,4.7904419 38.967515,4.7189141 33.577598,4 26.428075,4 18.47915,4 13.986009,4.1871495 13.986009,4.5184195 M 12.68996,9.5165009 C 11.834568,9.92346 10.574291,10.54038 9.8899772,10.887202 9.2051444,11.233506 8.3886342,11.983659 8.0755089,12.553921 7.7618651,13.124182 7.2973612,13.74162 7.0428173,13.926177 6.7882734,14.110735 6.3937562,15.393823 6.1666885,16.777484 5.9391023,18.161146 5.7529898,23.725859 5.7529898,29.143343 c 0,5.417483 0.1897415,11.006563 0.4219934,12.420293 0.2317335,1.413211 0.6843137,2.657418 1.0057337,2.764731 0.3214201,0.107312 0.5842587,0.504421 0.5842587,0.882868 0,0.378964 0.7180109,1.29242 1.595177,2.030649 0.8771654,0.738229 2.1602534,1.342187 2.8513064,1.342187 0.691054,0 1.25613,0.233289 1.25613,0.51842 0,0.331788 4.65126,0.518419 12.917457,0.518419 7.10442,0 12.994702,-0.185075 13.090091,-0.411106 0.09487,-0.226031 1.105789,-0.756893 2.246311,-1.179405 1.471275,-0.544858 2.329259,-1.291382 2.953437,-2.569804 0.483684,-0.9907 1.12497,-2.083528 1.425652,-2.427758 0.352526,-0.40385 0.545897,-5.413337 0.545897,-14.12693 0,-7.425322 -0.188187,-13.50068 -0.418884,-13.50068 -0.230178,0 -0.819621,-0.909825 -1.310045,-2.021317 -0.58374,-1.322488 -1.496678,-2.308522 -2.640829,-2.851306 C 41.315008,10.075875 40.445214,9.4210058 40.028313,9.237028 39.666676,9.0774383 39.171589,9.0420723 38.917428,8.9047098 38.624628,8.7464654 34.456837,8.6854748 26.55768,8.7207274 17.048831,8.7632378 13.891138,8.9441662 12.68996,9.5165009 m 24.587347,4.4893951 c -0.641284,0.740303 -0.781928,1.539963 -0.781928,1.735408 0,0.195443 0.0244,1.290459 0.707674,2.086232 1.229161,1.146359 1.965301,1.365389 3.251496,1.176548 0.927834,-0.387119 1.463637,-1.010638 1.67619,-1.3445 0.212033,-0.333862 0.355897,-1.029331 0.360563,-1.750453 0.0042,-0.720603 -0.461394,-1.712339 -1.034766,-2.203283 -0.57389,-0.490942 -1.431746,-0.761175 -1.927354,-0.744068 -0.496128,0.01763 -1.577153,0.236423 -2.218438,0.977244 m -15.807653,3.137588 c -0.855392,0.304312 -2.790384,1.426702 -4.096282,2.73934 -1.30538,1.313156 -2.595995,3.58434 -3.072941,4.801589 -0.476427,1.217767 -0.866279,3.229753 -0.866279,4.471367 0,1.241097 0.352007,3.255157 0.782295,4.474479 0.442212,1.252501 1.852313,3.27641 3.240121,4.649704 1.352039,1.337522 3.25101,2.702002 4.219935,3.031716 0.969445,0.329715 3.112072,0.599812 4.761683,0.599812 1.649611,0 3.604052,-0.22966 4.342799,-0.510643 0.739266,-0.280984 1.708711,-0.806142 2.15507,-1.166444 0.446359,-0.36082 1.733076,-1.550075 2.859602,-2.642903 1.550592,-1.504971 2.239572,-2.735699 2.837309,-5.069104 0.632472,-2.468714 0.676019,-3.628937 0.219292,-5.82859 -0.313644,-1.510675 -1.086608,-3.4112 -1.718561,-4.223563 -0.631435,-0.812364 -1.521561,-1.844018 -1.97777,-2.293488 -0.456209,-0.448951 -1.27272,-1.166444 -1.814469,-1.594139 -0.541748,-0.427697 -1.637686,-1.068981 -2.435015,-1.425654 -0.797329,-0.356155 -2.896928,-0.629362 -4.665775,-0.607069 -1.768848,0.02229 -3.915622,0.289796 -4.771014,0.59359 m 4.147355,3.767873 c -0.285131,0.09487 -1.108381,0.301201 -1.829502,0.458282 -0.721121,0.157081 -2.029094,0.935748 -2.906259,1.730484 -0.877684,0.794219 -1.862163,1.953923 -2.188249,2.576545 -0.326086,0.62314 -0.593072,2.213132 -0.593072,3.533547 0,1.320414 0.266986,2.910406 0.593072,3.533546 0.326086,0.622622 1.406472,1.865792 2.401319,2.761621 1.024915,0.923305 2.63046,1.761071 3.704107,1.932667 1.042023,0.166931 2.743475,0.06895 3.781352,-0.217736 1.037357,-0.286167 2.699928,-1.334411 3.694256,-2.32874 1.192884,-1.192883 1.926446,-2.507594 2.155588,-3.863262 0.190778,-1.130153 0.185595,-2.818127 -0.01244,-3.750764 -0.210478,-0.995365 -1.285162,-2.606613 -2.599874,-3.899551 -1.232802,-1.211547 -2.729577,-2.036885 -3.271226,-2.203283 -0.548433,-0.168481 -1.089973,-0.274098 -1.708295,-0.34829 -0.403644,-0.04883 -0.935644,-0.01045 -1.220775,0.08494"
     stroke="none"
     fill="#e0100f"
     fill-rule="evenodd"
     id="path21"
     sodipodi:nodetypes="ccccscsccccsssscccscsccccssccccscscssssssccccssccsscccsccccccccccscccscccccccscsccsccsccccscccscc"
     style="stroke-width:0.518419" />
</svg>
