<?xml version="1.0" encoding="UTF-8" standalone="no"?>
<svg
   width="101"
   height="105"
   viewBox="0 0 101 105"
   version="1.1"
   id="svg83"
   sodipodi:docname="inst_black.svg"
   inkscape:version="1.2 (dc2aedaf03, 2022-05-15)"
   xmlns:inkscape="http://www.inkscape.org/namespaces/inkscape"
   xmlns:sodipodi="http://sodipodi.sourceforge.net/DTD/sodipodi-0.dtd"
   xmlns="http://www.w3.org/2000/svg"
   xmlns:svg="http://www.w3.org/2000/svg">
  <defs
     id="defs87" />
  <sodipodi:namedview
     id="namedview85"
     pagecolor="#505050"
     bordercolor="#eeeeee"
     borderopacity="1"
     inkscape:showpageshadow="0"
     inkscape:pageopacity="0"
     inkscape:pagecheckerboard="0"
     inkscape:deskcolor="#505050"
     showgrid="false"
     inkscape:zoom="5.6366512"
     inkscape:cx="47.368551"
     inkscape:cy="39.739908"
     inkscape:window-width="1920"
     inkscape:window-height="1017"
     inkscape:window-x="-8"
     inkscape:window-y="-8"
     inkscape:window-maximized="1"
     inkscape:current-layer="svg83" />
  <circle
     style="opacity:0.9;fill:#ffffff;stroke-width:1.19654"
     id="path427"
     cx="50.694633"
     cy="51.22686"
     r="50" />
  <path
     d="m 34.220232,16.576433 c 0,0.393963 -0.886774,0.728473 -1.969813,0.743514 -1.08304,0.01438 -3.721872,0.901099 -5.863594,1.969813 -2.984802,1.489177 -4.304934,2.694701 -5.658016,5.16592 -0.969861,1.772831 -2.040724,3.405267 -2.379532,3.627319 -0.338807,0.222052 -0.926886,3.606546 -1.307238,7.521099 -0.38107,3.914555 -0.69194,10.823938 -0.691224,15.354505 7.15e-4,4.530567 0.293681,11.268038 0.651828,14.972 0.358864,3.703962 0.946226,6.927293 1.306522,7.162953 0.361014,0.235661 1.451215,1.878843 2.423942,3.651673 1.337325,2.437553 2.708312,3.703246 5.626501,5.19314 2.122382,1.083754 4.759065,1.969812 5.859293,1.969812 1.100946,0 2.001331,0.322332 2.001331,0.716296 0,0.457712 6.208129,0.716294 17.191083,0.716294 9.548215,0 17.191085,-0.282936 17.191085,-0.636786 0,-0.349552 1.209106,-0.857406 2.686106,-1.127448 1.477718,-0.270044 3.998362,-1.2528 5.601428,-2.183268 1.603786,-0.931184 3.779173,-2.93896 4.834994,-4.46252 1.055819,-1.522844 1.919672,-3.289228 1.919672,-3.924581 0,-0.63607 0.402558,-1.290046 0.895368,-1.454079 0.68836,-0.229216 0.89537,-5.047015 0.89537,-20.858515 0,-12.888301 -0.267179,-20.750355 -0.716296,-21.070541 -0.393963,-0.281504 -1.514964,-2.095878 -2.490558,-4.03274 C 81.041582,23.234397 79.422754,21.415007 77.33762,20.092727 75.623525,19.005391 72.956757,17.902295 71.411708,17.641565 69.86666,17.380117 68.6024,16.872978 68.6024,16.513399 c 0,-0.375338 -7.312657,-0.653261 -17.191085,-0.653261 -10.982954,0 -17.191083,0.258582 -17.191083,0.716295 m -1.790738,6.905802 c -1.181889,0.562292 -2.923203,1.414682 -3.868713,1.893884 -0.946225,0.478486 -2.074389,1.514964 -2.507034,2.302888 -0.433358,0.787926 -1.075157,1.641034 -1.42686,1.896036 -0.351699,0.255 -0.896799,2.02783 -1.210537,3.939621 -0.314452,1.911793 -0.571604,9.600507 -0.571604,17.08579 0,7.485286 0.262164,15.207664 0.583066,17.161 0.320184,1.952622 0.945508,3.67173 1.389612,3.820004 0.444102,0.148279 0.807263,0.696956 0.807263,1.21985 0,0.523611 0.992069,1.785723 2.20404,2.805727 1.211972,1.020007 2.984804,1.854489 3.939624,1.854489 0.954822,0 1.735585,0.322334 1.735585,0.716295 0,0.45843 6.426599,0.716294 17.847926,0.716294 9.816111,0 17.954656,-0.255716 18.086454,-0.568022 0.13108,-0.312302 1.527858,-1.04579 3.103706,-1.62957 2.032846,-0.752826 3.218316,-1.784291 4.080734,-3.550675 0.668304,-1.36884 1.554361,-2.87879 1.969814,-3.354411 0.48708,-0.557994 0.754257,-7.479554 0.754257,-19.519042 0,-10.259498 -0.260015,-18.65376 -0.578765,-18.65376 -0.318036,0 -1.132464,-1.257098 -1.810078,-2.792836 -0.806548,-1.827268 -2.067946,-3.189662 -3.648808,-3.939622 -1.328728,-0.631058 -2.931796,-1.14679 -3.56142,-1.14679 -0.63034,0 -1.145356,-0.322332 -1.145356,-0.716296 0,-0.459862 -6.097822,-0.689074 -17.012011,-0.640368 -13.138286,0.05874 -17.501242,0.308724 -19.160895,1.099514"
     stroke="none"
     fill="#e0100f"
     fill-rule="evenodd"
     id="path81"
     sodipodi:nodetypes="ccccscsccccsssscccscsccccssccccscscssssssccccssccsscc"
     style="fill:#4d4d4d;stroke-width:0.716293" />
  <circle
     style="fill:#4d4d4d;stroke-width:0.796877"
     id="path397"
     cx="69.168144"
     cy="31.169096"
     r="3.998673" />
  <circle
     style="fill:#4d4d4d;stroke-width:0.716293"
     id="path399"
     cx="51.76107"
     cy="50.215694"
     r="17.70199" />
  <circle
     style="fill:#ffffff;stroke-width:0.58606"
     id="path453"
     cx="51.945354"
     cy="50.329281"
     r="12.580736" />
</svg>
