<?xml version="1.0" encoding="UTF-8" standalone="no"?>
<!-- Created with Inkscape (http://www.inkscape.org/) -->

<svg
   version="1.1"
   id="svg463"
   width="3347.3015"
   height="914.28571"
   viewBox="0 0 3347.3015 914.28571"
   sodipodi:docname="logo2.svg"
   inkscape:version="1.2 (dc2aedaf03, 2022-05-15)"
   xmlns:inkscape="http://www.inkscape.org/namespaces/inkscape"
   xmlns:sodipodi="http://sodipodi.sourceforge.net/DTD/sodipodi-0.dtd"
   xmlns="http://www.w3.org/2000/svg"
   xmlns:svg="http://www.w3.org/2000/svg">
  <defs
     id="defs467">
    <clipPath
       clipPathUnits="userSpaceOnUse"
       id="clipPath1377">
      <path
         id="path1379"
         style="fill:#ff0000;fill-opacity:1;fill-rule:nonzero;stroke:none"
         d="m 72.291016,73.90625 v 63.80859 H 266.54492 V 73.90625 Z m 55.121094,34.30859 c 0.41799,0.004 0.49907,0.53916 -0.16211,1.20313 -0.64915,0.65189 -1.38449,1.20933 -2.11914,1.75976 -0.63579,0.47461 -1.32146,0.87251 -2.03711,1.21289 -0.26555,0.11782 -0.53677,0.22307 -0.80078,0.34376 -0.0471,0.0168 -0.0954,0.034 -0.14258,0.0508 -1.34544,0.47807 -1.70146,-0.5968 -0.32031,-0.95899 0.014,-0.004 0.0291,-0.006 0.043,-0.01 0.25981,-0.11874 0.52525,-0.22352 0.78711,-0.33789 0.65561,-0.30976 1.28298,-0.67613 1.86523,-1.10938 0.69639,-0.5215 1.39421,-1.04652 2.00977,-1.66406 0.3465,-0.34762 0.658,-0.49227 0.87695,-0.49024 z m -5.38086,1.48243 c 0.95635,0.0226 0.94081,0.81533 -0.28906,1.03515 -0.25085,0.0448 -0.49863,0.10366 -0.7461,0.16406 -0.27672,0.0812 -0.52514,0.23644 -0.79687,0.33204 -0.8648,0.30747 -1.74689,0.56254 -2.62695,0.82226 -1.67572,0.47579 -3.35471,0.94404 -5.04883,1.34961 -1.38862,0.33243 -1.59333,-0.65434 -0.20508,-0.98828 1.66991,-0.4017 3.32633,-0.86282 4.97852,-1.33203 0.85896,-0.25392 1.72029,-0.5025 2.56445,-0.80274 0.27879,-0.11626 0.54787,-0.2535 0.83594,-0.3457 0.28639,-0.0743 0.57416,-0.14016 0.86523,-0.19336 0.17557,-0.0321 0.33213,-0.0442 0.46875,-0.041 z" />
    </clipPath>
    <clipPath
       clipPathUnits="userSpaceOnUse"
       id="clipPath1387">
      <path
         id="path1389"
         style="fill:#ff0000;fill-opacity:1;fill-rule:nonzero;stroke:none;stroke-width:1.02594"
         d="M 67.630154,86.484311 V 161.51556 L 280.73771,228.00792 V 152.97667 Z M 134.10703,150.058 c 0.43995,0.14127 0.52529,0.70306 -0.17063,1.14989 -0.68326,0.43871 -1.45724,0.75466 -2.23049,1.06382 -0.6692,0.26581 -1.3909,0.43853 -2.14415,0.54389 -0.2795,0.0306 -0.56498,0.0468 -0.84286,0.0808 -0.0496,0.001 -0.10041,0.003 -0.15007,0.004 -1.41614,0.0362 -1.79086,-1.15557 -0.33714,-1.06418 0.0147,5.9e-4 0.0306,0.004 0.0453,0.004 0.27346,-0.0334 0.55284,-0.051 0.82846,-0.0794 0.69006,-0.0945 1.3504,-0.25479 1.96325,-0.49682 0.73298,-0.2928 1.46746,-0.58867 2.11537,-1.00404 0.3647,-0.23383 0.69258,-0.27618 0.92303,-0.20224 z m -5.6636,-0.28469 c 1.0066,0.33668 0.99025,1.1243 -0.30425,0.94022 -0.26403,-0.0376 -0.52483,-0.0601 -0.7853,-0.081 -0.29126,-0.01 -0.55275,0.064 -0.83874,0.0703 -0.91024,0.0235 -1.83867,-0.0112 -2.76499,-0.0404 -1.76377,-0.0745 -3.53098,-0.15768 -5.31412,-0.30847 -1.46159,-0.1236 -1.67705,-1.1776 -0.21586,-1.05563 1.75766,0.14671 3.50112,0.22955 5.24012,0.30295 0.90411,0.0282 1.81069,0.0625 2.6992,0.0395 0.29344,-0.0247 0.57665,-0.0736 0.87986,-0.0712 0.30145,0.0198 0.60434,0.0484 0.9107,0.0908 0.1848,0.0256 0.34958,0.0649 0.49338,0.11294 z" />
    </clipPath>
    <clipPath
       clipPathUnits="userSpaceOnUse"
       id="clipPath1397">
      <path
         id="path1399"
         style="fill:#ff0000;fill-opacity:1;fill-rule:nonzero;stroke:none;stroke-width:1.02552"
         d="m 103.87036,139.72854 v 54.76563 l 147.98979,45.82315 V 185.5517 Z m 30.12709,9.97691 c 0.43959,0.14012 0.52486,0.70167 -0.17049,1.15033 -0.6827,0.44049 -1.45605,0.75849 -2.22867,1.06969 -0.66865,0.26757 -1.38976,0.44218 -2.1424,0.54952 -0.27927,0.0314 -0.56451,0.0483 -0.84217,0.083 -0.0495,0.001 -0.10033,0.003 -0.14995,0.004 -1.41498,0.0399 -1.7894,-1.15086 -0.33686,-1.06329 0.0147,5.6e-4 0.0306,0.003 0.0452,0.004 0.27323,-0.0341 0.55239,-0.0525 0.82779,-0.0816 0.68949,-0.0963 1.34929,-0.25832 1.96164,-0.50198 0.73238,-0.29473 1.46626,-0.59251 2.11364,-1.0096 0.36441,-0.23479 0.69201,-0.27799 0.92228,-0.20466 z m -5.65897,-0.26981 c 1.00578,0.33402 0.98942,1.1217 -0.30401,0.94103 -0.26382,-0.0369 -0.52438,-0.0587 -0.78465,-0.0789 -0.29102,-0.009 -0.55229,0.0654 -0.83806,0.0725 -0.9095,0.0259 -1.83717,-0.006 -2.76273,-0.0332 -1.76233,-0.0699 -3.5281,-0.14839 -5.30978,-0.2945 -1.46039,-0.11976 -1.67568,-1.17319 -0.21568,-1.05506 1.75622,0.14209 3.49825,0.22037 5.23583,0.28918 0.90338,0.0258 1.80921,0.0576 2.697,0.0324 0.2932,-0.0255 0.57619,-0.0751 0.87914,-0.0735 0.30119,0.019 0.60384,0.0468 0.90996,0.0884 0.18464,0.0251 0.3493,0.064 0.49298,0.11165 z" />
    </clipPath>
  </defs>
  <sodipodi:namedview
     id="namedview465"
     pagecolor="#505050"
     bordercolor="#eeeeee"
     borderopacity="1"
     inkscape:showpageshadow="0"
     inkscape:pageopacity="0"
     inkscape:pagecheckerboard="0"
     inkscape:deskcolor="#505050"
     showgrid="false"
     inkscape:zoom="0.52938451"
     inkscape:cx="1769.98"
     inkscape:cy="430.68884"
     inkscape:window-width="1920"
     inkscape:window-height="1017"
     inkscape:window-x="-8"
     inkscape:window-y="-8"
     inkscape:window-maximized="1"
     inkscape:current-layer="g469" />
  <g
     inkscape:groupmode="layer"
     inkscape:label="Image"
     id="g469"
     style="display:inline">
    <path
       style="fill:#ff0000;stroke-width:0.944493"
       d="m 1155.3641,350.20142 c 1.4357,-0.2171 3.5608,-0.21129 4.7225,0.0129 1.1617,0.22419 -0.013,0.40181 -2.6104,0.39472 -2.5973,-0.007 -3.5478,-0.19051 -2.1121,-0.40761 z"
       id="path617" />
    <path
       style="fill:#ff0000;stroke-width:2.67143"
       d="m 1025.829,272.48584 v -70.79289 h 26.3564 26.3563 l 5.9681,16.36801 c 8.565,23.49035 34.1876,78.2572 37.0606,79.21485 1.3379,0.44596 4.4663,-4.34827 6.952,-10.65385 2.4857,-6.30558 11.9525,-27.99416 21.0372,-48.19685 l 16.5178,-36.73216 h 26.0473 26.0473 v 70.79289 70.79289 h -21.3715 -21.3714 v -40.07145 c 0,-26.00578 -0.9769,-40.07145 -2.7832,-40.07145 -2.8836,0 -12.8978,20.53369 -28.011,57.43575 l -8.7527,21.37143 -15.8621,0.78421 -15.8622,0.7842 -10.4433,-24.82707 c -5.7438,-13.65489 -12.8491,-31.34821 -15.7894,-39.31848 -9.5714,-25.94451 -12.0247,-21.12569 -12.0247,23.61879 v 40.29407 h -20.0357 -20.0358 z"
       id="path348" />
    <path
       style="fill:#ff0000;stroke-width:2.67143"
       d="m 1252.9006,273.82155 v -69.45717 h 21.3714 21.3714 v 38.73573 c 0,24.84168 0.9888,38.73573 2.7568,38.73573 1.5161,0 15.6096,-17.43108 31.3187,-38.73573 l 28.562,-38.73573 h 19.4384 19.4385 v 69.45717 69.45718 h -20.0357 -20.0358 v -42.74288 c 0,-47.41024 -1.9073,-51.87915 -13.3969,-31.3893 -3.5015,6.24447 -11.2363,17.43834 -17.1883,24.87526 -5.9521,7.43693 -16.5256,21.56211 -23.4967,31.3893 l -12.6747,17.86762 h -18.7146 -18.7145 z"
       id="path404" />
    <path
       style="fill:#ff0000;stroke-width:2.67143"
       d="m 1439.9007,274.95675 v -68.32198 l 52.7607,0.86838 c 48.3547,0.79586 53.6808,1.36054 63.7783,6.76195 17.2854,9.24645 25.0467,20.19225 25.0467,35.32349 0,17.76943 -8.018,28.91215 -27.9774,38.88038 -13.9244,6.95418 -19.4518,8.09824 -43.4107,8.98514 l -27.4548,1.0163 v 22.40416 22.40416 h -21.3714 -21.3714 z m 91.6892,-6.03173 c 12.0672,-11.33655 10.6979,-28.81382 -2.7371,-34.93521 -3.6465,-1.66149 -15.5354,-3.77366 -26.4197,-4.69372 l -19.7896,-1.67283 v 24.71772 24.71773 l 21.1675,-0.96126 c 17.6924,-0.80346 22.2528,-1.98093 27.7789,-7.17243 z"
       id="path406" />
    <path
       style="fill:#ff0000;stroke-width:2.67143"
       d="m 1025.829,550.31454 v -70.79289 h 18.7 18.7001 v 26.7143 26.71429 h 33.3928 33.3929 v -26.71429 -26.7143 h 18.7 18.7 v 70.79289 70.79289 h -18.6178 -18.6178 l -0.75,-32.72502 -0.7501,-32.72501 -32.725,-0.75008 -32.725,-0.75009 v 33.4751 33.4751 h -18.7001 -18.7 z"
       id="path408" />
    <path
       style="fill:#ff0000;stroke-width:2.67143"
       d="m 1207.4863,550.31454 v -68.12146 h 65.45 65.45 v 10.68572 10.68572 h -44.0786 -44.0786 v 14.69286 14.69286 h 32.0572 32.0572 v 10.68572 10.68572 h -32.0572 -32.0572 v 20.03573 20.03572 h 44.0786 44.0786 v 12.02143 12.02144 h -65.45 -65.45 z"
       id="path410" />
    <path
       style="fill:#ff0000;stroke-width:2.67143"
       d="m 1373.6292,607.08242 c 0.735,-10.15925 1.5942,-11.4425 8.1679,-12.19888 l 7.3464,-0.8453 v -45.33085 c 0,-53.09407 0.8461,-55.4342 23.0478,-63.74089 12.4791,-4.66903 20.819,-5.44485 58.531,-5.44485 h 43.9784 v 57.43574 57.43574 h 6.6786 c 6.1344,0 6.6785,0.97952 6.6785,12.02143 V 618.436 h -77.625 -77.6251 z m 106.3429,-58.1036 v -45.4143 h -24.8443 c -15.7614,0 -26.0163,1.17198 -28.05,3.20571 -2.2228,2.22281 -3.2057,16.14731 -3.2057,45.41431 v 42.20859 h 28.05 28.05 z"
       id="path412" />
    <path
       style="fill:#ff0000;stroke-width:2.67143"
       d="m 1565.4579,547.6767 v -68.79796 l 50.0893,1.19922 c 37.4262,0.89604 52.5336,2.25669 59.758,5.38212 23.7211,10.26227 24.8774,37.17789 2.1032,48.95491 -9.0979,4.70468 -8.4138,7.84936 2.1975,10.10275 4.0711,0.86453 10.9417,4.45904 15.2679,7.9878 6.9468,5.66619 7.8833,8.15053 8.0143,21.25971 0.1792,17.92817 -5.3432,25.14525 -26.1609,34.18903 -12.1087,5.26035 -19.6196,6.13134 -62.5157,7.24952 l -48.7536,1.27087 z m 92.9056,39.88637 c 7.1339,-4.99676 8.1249,-19.98639 1.7433,-26.36799 -5.9718,-5.9718 -13.172,-7.24213 -35.9089,-6.33542 l -20.0043,0.79774 -0.7899,18.03215 -0.7899,18.03215 h 24.9062 c 18.2185,0 26.5005,-1.11667 30.8435,-4.15863 z m -14.5907,-55.01275 c 7.629,-4.0156 9.7516,-7.45514 9.8013,-15.88247 0.065,-11.00559 -7.1428,-15.29313 -26.9014,-16.00228 -9.6758,-0.34727 -18.9925,0.23388 -20.7036,1.29143 -3.2801,2.02721 -4.3978,28.8162 -1.3303,31.88372 2.9757,2.97566 32.904,1.98881 39.134,-1.2904 z"
       id="path414" />
    <path
       style="fill:#ff0000;stroke-width:2.67143"
       d="m 1739.1008,550.31454 v -70.79289 h 20.0357 20.0357 v 38.93161 c 0,32.24886 0.651,38.78335 3.792,38.06787 2.0856,-0.47505 16.4862,-17.99428 32.0013,-38.93161 l 28.2094,-38.06787 h 20.0915 20.0916 v 70.79289 70.79289 h -20.0357 -20.0357 v -44.07859 c 0,-30.42305 -0.9154,-44.0786 -2.9549,-44.0786 -3.7604,0 -10.4534,8.18953 -30.438,37.24419 -8.8157,12.81671 -20.6494,29.51533 -26.2971,37.10805 l -10.2684,13.80495 h -17.1137 -17.1137 z"
       id="path416" />
    <path
       style="fill:#ff0000;stroke-width:2.67143"
       d="m 1916.8214,618.55006 c -1.6557,-2.679 16.8532,-41.51858 25.856,-54.257 2.8737,-4.06611 9.3986,-9.53415 14.4998,-12.15121 l 9.2749,-4.75829 -10.1578,-6.5488 c -7.4884,-4.82788 -13.0626,-12.24162 -21.212,-28.21225 -17.8086,-34.90016 -17.9443,-33.49612 3.1471,-32.56009 l 17.9122,0.79494 7.4167,21.04068 c 9.4073,26.68751 16.4702,34.0425 34.3396,35.75952 l 13.5013,1.2973 0.7616,-29.04875 0.7615,-29.04875 16.6048,-0.79295 16.6048,-0.79295 0.7595,28.84296 0.7595,28.84297 10.6858,0.72771 c 17.9933,1.22537 25.8355,-5.8697 37.4443,-33.87689 l 10.0666,-24.28656 h 15.6481 c 12.1763,0 15.6481,0.89522 15.6481,4.03485 0,5.06223 -20.3246,46.4806 -25.7512,52.47693 -2.2152,2.44782 -6.9446,5.18268 -10.5097,6.07745 -8.9014,2.23413 -8.1292,5.09284 2.7811,10.29561 10.3888,4.9541 19.4548,17.9665 32.575,46.75503 10.0965,22.15391 9.7647,22.72583 -12.4342,21.42978 l -14.0379,-0.81959 -11.0223,-25.11331 c -12.6036,-28.71634 -18.5311,-34.39475 -38.3543,-36.74252 l -13.8993,-1.64616 -0.7557,31.751 -0.7558,31.75099 h -16.0286 -16.0286 l -0.7526,-31.3893 -0.7526,-31.3893 h -8.0153 c -11.8311,0 -25.0223,6.37838 -31.1425,15.05848 -2.9662,4.20677 -8.1565,15.46261 -11.5341,25.01297 -3.3775,9.55036 -7.2873,18.86697 -8.6883,20.70358 -3.0119,3.94819 -32.8492,4.6107 -35.2155,0.78192 z"
       id="path418" />
    <path
       style="fill:#ff0000;stroke-width:2.67143"
       d="m 2177.2153,550.31454 v -70.79289 h 20.0357 20.0357 v 38.73573 c 0,29.24889 0.8179,38.71678 3.3393,38.65836 1.8366,-0.0426 13.2231,-13.56666 25.3034,-30.05358 37.5754,-51.28235 32.9316,-47.34051 55.7705,-47.34051 h 19.7726 v 70.79289 70.79289 h -21.3714 -21.3715 v -44.07859 c 0,-43.04651 -1.5924,-50.7351 -8.0204,-38.7243 -1.576,2.94487 -14.8419,21.69362 -29.4797,41.6639 -14.6378,19.97027 -26.6142,37.3962 -26.6142,38.72428 0,1.32809 -8.415,2.41471 -18.7,2.41471 h -18.7 z"
       id="path420" />
    <path
       style="fill:#ff0000;stroke-width:2.67143"
       d="m 2356.2011,550.31454 v -70.79289 h 26.2195 26.2195 l 4.8184,10.01786 c 2.65,5.50982 6.4432,14.57508 8.4291,20.14501 6.6197,18.56635 28.668,66.0086 30.6768,66.0086 1.0896,0 5.7656,-9.31661 10.3913,-20.70358 4.6256,-11.38697 13.9504,-33.02555 20.7216,-48.08574 l 12.3114,-27.38215 h 26.2777 26.2776 v 70.79289 70.79289 h -21.3714 -21.3715 v -41.62978 c 0,-32.10742 -0.7638,-41.37908 -3.3392,-40.53377 -1.8367,0.6028 -9.1747,15.42924 -16.3068,32.94763 -22.6831,55.71586 -18.2073,49.60057 -35.629,48.68078 l -15.1635,-0.80058 -7.3686,-17.36429 c -4.0527,-9.55036 -11.362,-27.48788 -16.2427,-39.86115 -13.466,-34.13767 -15.4788,-31.93598 -15.4788,16.93138 v 41.62978 h -20.0357 -20.0357 z"
       id="path422" />
    <path
       style="fill:#ff0000;stroke-width:2.67143"
       d="m 2637.5732,618.46751 c -35.7119,-7.54197 -59.6069,-34.37262 -60.3897,-67.80902 -1.1071,-47.28257 29.1792,-74.83017 82.2249,-74.78969 52.3632,0.04 79.978,25.10254 79.6096,72.25183 -0.1953,24.99401 -7.4471,42.14059 -22.4938,53.18588 -6.8559,5.03273 -17.4819,10.92035 -23.6132,13.0836 -14.4415,5.09526 -41.187,7.06592 -55.3378,4.0774 z m 37.1278,-24.56969 c 6.6192,-1.98317 13.225,-6.64809 17.6742,-12.48134 6.5091,-8.53381 7.1046,-11.387 7.1046,-34.03738 0,-20.8034 -0.8732,-25.89232 -5.5079,-32.10005 -10.4232,-13.96075 -19.0363,-18.40277 -35.4357,-18.27525 -18.7739,0.14598 -27.5725,5.51356 -35.34,21.55901 -7.7297,15.96744 -6.7974,50.06106 1.6851,61.62497 11.0642,15.0834 28.8757,19.98501 49.8197,13.71004 z"
       id="path424" />
    <path
       style="fill:#ff0000;stroke-width:2.67143"
       d="m 2814.9662,612.14927 c -23.579,-9.96936 -32.8199,-18.27866 -39.1532,-35.20603 -10.9649,-29.30623 -5.0907,-60.38255 14.8963,-78.80593 15.3459,-14.14535 34.7377,-19.5689 64.8249,-18.13042 28.2955,1.35283 45.1936,8.6161 56.5643,24.31296 11.4818,15.85016 10.5264,17.94467 -8.1857,17.94467 -14.8785,0 -16.2292,-0.5206 -19.9331,-7.68316 -4.4764,-8.65636 -20.7491,-16.39308 -34.286,-16.30103 -10.8486,0.0738 -28.2012,7.9603 -35.8323,16.28535 -19.5576,21.33591 -13.4276,63.68324 10.9405,75.57921 20.8755,10.19097 54.051,4.42998 60.8869,-10.57312 2.7091,-5.9459 4.5404,-6.55008 19.8538,-6.55008 h 16.8694 l -2.7753,7.34643 c -4.0703,10.77454 -15.3334,21.62201 -30.4632,29.33919 -20.0973,10.25085 -53.1644,11.339 -74.2073,2.44196 z"
       id="path426" />
    <path
       style="fill:#ff0000;stroke-width:2.67143"
       d="m 2989.3299,559.66454 v -58.77145 h -24.0428 -24.0429 v -10.68572 -10.68572 h 65.45 65.4501 v 10.68572 10.68572 h -24.0429 -24.0429 v 58.77145 58.77146 h -17.3643 -17.3643 z"
       id="path428" />
    <path
       style="fill:#ff0000;stroke-width:2.67143"
       d="m 3104.2014,550.31454 v -70.79289 h 20.0357 20.0358 v 38.73573 c 0,21.76173 1.0756,38.73573 2.4546,38.73573 2.9507,0 32.8467,-36.76762 42.2553,-51.96768 14.1999,-22.94072 18.2137,-25.50378 39.9399,-25.50378 h 19.5359 v 70.79289 70.79289 h -21.3714 -21.3714 v -44.07859 c 0,-24.24323 -0.9196,-44.0786 -2.0435,-44.0786 -1.8294,0 -43.4153,55.93604 -58.7705,79.05055 -5.848,8.80325 -6.6268,9.10664 -23.375,9.10664 h -17.3254 z"
       id="path470" />
    <path
       style="fill:#ff0000;stroke-width:2.67143"
       d="M 870.88611,436.77877 V 110.86434 h 10.68572 10.68572 v 325.91443 325.91444 h -10.68572 -10.68572 z"
       id="path472" />
    <path
       style="fill:#ff0000"
       d="M 72.290373,137.71518 266.54551,73.9058"
       id="path344"
       clip-path="url(#clipPath1377)"
       transform="matrix(1.185552,0,0,1.1895271,52.408081,31.822372)" />
    <path
       style="fill:#ff0000;stroke-width:1.18754"
       d="m 129.37411,190.59414 -0.95759,568.55181"
       id="path354" />
    <path
       style="fill:#ff0000;stroke-width:1.18754"
       d="m 368.23212,109.46681 8.19933,642.11288"
       id="path366" />
    <rect
       style="fill:#ff0000;stroke-width:1.18754"
       id="rect368"
       width="8.6223812"
       height="643.14532"
       x="368.32187"
       y="109.55688" />
    <rect
       style="fill:#ff0000;stroke-width:1.18754"
       id="rect372"
       width="649.55475"
       height="7.526835"
       x="128.35666"
       y="751.94" />
    <rect
       style="fill:#ff0000;stroke-width:1.18754"
       id="rect374"
       width="8.5371609"
       height="566.10364"
       x="490.26456"
       y="190.71423" />
    <rect
       style="fill:#ff0000;stroke-width:1.18754"
       id="rect376"
       width="8.5359745"
       height="374.59082"
       x="529.40588"
       y="378.06973" />
    <path
       id="rect378"
       style="fill:#ff0000;stroke-width:1.18256"
       d="m 689.74422,325.69366 v 427.12855 h 8.63229 V 333.57196 c -0.0467,-0.30624 -0.068,-0.65149 -0.0555,-1.04084 0.008,-0.20295 0.0282,-0.40403 0.0555,-0.60406 v -6.2334 z" />
    <rect
       style="fill:#ff0000;stroke-width:1.18754"
       id="rect380"
       width="8.5359745"
       height="375.53079"
       x="769.46185"
       y="381.56311" />
    <rect
       style="fill:#ff0000;stroke-width:1.18754"
       id="rect440"
       width="8.5359745"
       height="561.10571"
       x="128.41653"
       y="191.19464" />
    <path
       id="rect442"
       style="fill:#ff0000;stroke-width:0.585963"
       inkscape:transform-center-x="0.48396275"
       inkscape:transform-center-y="0.28052004"
       transform="matrix(1.1263667,-0.37114813,0,1.1895271,52.408081,31.822372)"
       d="m 280.73771,152.97667 -213.107556,0.002 v 8.53711 l 213.107556,-0.002 z"
       clip-path="url(#clipPath1387)" />
    <path
       id="rect442-4"
       style="fill:#ff0000;stroke-width:0.407183"
       inkscape:transform-center-x="0.33633509"
       inkscape:transform-center-y="0.1940564"
       transform="matrix(1.1272879,-0.36832193,0,1.1895271,52.408081,31.822372)"
       d="m 251.86015,185.5517 -147.98979,10e-4 v 8.94141 l 147.98979,8.9e-4 z"
       clip-path="url(#clipPath1397)" />
    <rect
       style="fill:#ff0000;stroke-width:0.483622"
       id="rect442-4-4"
       width="175.50595"
       height="10.636553"
       x="178.43272"
       y="310.94226"
       ry="0"
       transform="matrix(0.95054872,-0.31057547,0,1,0,0)"
       inkscape:transform-center-x="0.33635225"
       inkscape:transform-center-y="0.19405129" />
    <rect
       style="fill:#ff0000;stroke-width:0.483622"
       id="rect442-4-4-1"
       width="175.50595"
       height="10.636553"
       x="176.92162"
       y="390.93979"
       ry="0"
       transform="matrix(0.95054872,-0.31057547,0,1,0,0)"
       inkscape:transform-center-x="0.33635241"
       inkscape:transform-center-y="0.19408188" />
    <rect
       style="fill:#ff0000;stroke-width:0.483622"
       id="rect442-4-4-1-5"
       width="175.50595"
       height="10.636553"
       x="177.17346"
       y="430.41068"
       ry="0"
       transform="matrix(0.95054872,-0.31057547,0,1,0,0)"
       inkscape:transform-center-x="0.33635079"
       inkscape:transform-center-y="0.19412125" />
    <rect
       style="fill:#ff0000;stroke-width:0.483622"
       id="rect442-4-4-1-5-9"
       width="175.50595"
       height="10.636553"
       x="177.42532"
       y="472.0434"
       ry="0"
       transform="matrix(0.95054872,-0.31057547,0,1,0,0)"
       inkscape:transform-center-x="0.33634963"
       inkscape:transform-center-y="0.19411775" />
    <rect
       style="fill:#ff0000;stroke-width:0.483622"
       id="rect442-4-4-1-5-9-5"
       width="175.50595"
       height="10.636553"
       x="177.42532"
       y="550.82867"
       ry="0"
       transform="matrix(0.95054872,-0.31057547,0,1,0,0)"
       inkscape:transform-center-x="0.33634963"
       inkscape:transform-center-y="0.19405389" />
    <rect
       style="fill:#ff0000;stroke-width:0.483622"
       id="rect442-4-4-1-5-9-5-0"
       width="175.50595"
       height="10.636553"
       x="177.67715"
       y="591.98108"
       ry="0"
       transform="matrix(0.95054872,-0.31057547,0,1,0,0)"
       inkscape:transform-center-x="0.33636388"
       inkscape:transform-center-y="0.19408631" />
    <rect
       style="fill:#ff0000;stroke-width:0.483622"
       id="rect442-4-4-1-5-9-5-0-8"
       width="175.50595"
       height="10.636553"
       x="177.67715"
       y="631.85413"
       ry="0"
       transform="matrix(0.95054872,-0.31057547,0,1,0,0)"
       inkscape:transform-center-x="0.33636388"
       inkscape:transform-center-y="0.1940816" />
    <rect
       style="fill:#ff0000;stroke-width:0.483622"
       id="rect442-4-4-1-5-9-5-0-8-6"
       width="175.50595"
       height="10.636553"
       x="177.67715"
       y="671.72717"
       ry="0"
       transform="matrix(0.95054872,-0.31057547,0,1,0,0)"
       inkscape:transform-center-x="0.33636388"
       inkscape:transform-center-y="0.19408847" />
    <rect
       style="fill:#ff0000;stroke-width:0.483622"
       id="rect442-4-4-1-5-9-5-0-8-6-6"
       width="175.50595"
       height="10.636553"
       x="177.42532"
       y="752.35602"
       ry="0"
       transform="matrix(0.95054872,-0.31057547,0,1,0,0)"
       inkscape:transform-center-x="0.33634102"
       inkscape:transform-center-y="0.19405511" />
    <rect
       style="fill:#ff0000;stroke-width:0.385591"
       id="rect442-3"
       width="147.11278"
       height="9.1666965"
       x="-599.90973"
       y="-141.44077"
       ry="0"
       transform="matrix(-0.83193795,-0.55486867,0,1,0,0)"
       inkscape:transform-center-x="-0.24784408"
       inkscape:transform-center-y="0.22886646" />
    <rect
       style="fill:#ff0000;stroke-width:0.149791"
       id="rect442-3-7"
       width="57.488819"
       height="9.5063276"
       x="-546.77057"
       y="-96.566765"
       ry="0"
       transform="matrix(-0.8362535,-0.54834304,0,1,0,0)"
       inkscape:transform-center-x="-0.097323657"
       inkscape:transform-center-y="0.088349201" />
    <rect
       style="fill:#ff0000;stroke-width:0.149791"
       id="rect442-3-7-9"
       width="57.488819"
       height="9.5063276"
       x="-547.07434"
       y="-15.971196"
       ry="0"
       transform="matrix(-0.8362535,-0.54834304,0,1,0,0)"
       inkscape:transform-center-x="-0.097429799"
       inkscape:transform-center-y="0.08843202" />
    <rect
       style="fill:#ff0000;stroke-width:0.149791"
       id="rect442-3-7-9-0"
       width="57.488819"
       height="9.5063276"
       x="-546.87183"
       y="23.883905"
       ry="0"
       transform="matrix(-0.8362535,-0.54834304,0,1,0,0)"
       inkscape:transform-center-x="-0.097350534"
       inkscape:transform-center-y="0.088380032" />
    <rect
       style="fill:#ff0000;stroke-width:0.149791"
       id="rect442-3-7-9-0-9"
       width="57.488819"
       height="9.5063276"
       x="-545.85968"
       y="103.92709"
       ry="0"
       transform="matrix(-0.8362535,-0.54834304,0,1,0,0)"
       inkscape:transform-center-x="-0.097343464"
       inkscape:transform-center-y="0.088376383" />
    <rect
       style="fill:#ff0000;stroke-width:0.149791"
       id="rect442-3-7-9-0-9-3"
       width="57.488819"
       height="9.5063276"
       x="-546.46704"
       y="145.37633"
       ry="0"
       transform="matrix(-0.8362535,-0.54834304,0,1,0,0)"
       inkscape:transform-center-x="-0.097386636"
       inkscape:transform-center-y="0.088389954" />
    <rect
       style="fill:#ff0000;stroke-width:0.149791"
       id="rect442-3-7-9-0-9-3-5"
       width="57.488819"
       height="9.5063276"
       x="-547.07434"
       y="185.12715"
       ry="0"
       transform="matrix(-0.8362535,-0.54834304,0,1,0,0)"
       inkscape:transform-center-x="-0.097429799"
       inkscape:transform-center-y="0.088434629" />
    <rect
       style="fill:#ff0000;stroke-width:0.149791"
       id="rect442-3-7-9-0-9-3-5-9"
       width="57.488819"
       height="9.5063276"
       x="-546.66943"
       y="225.94249"
       ry="0"
       transform="matrix(-0.8362535,-0.54834304,0,1,0,0)"
       inkscape:transform-center-x="-0.097368581"
       inkscape:transform-center-y="0.088406237" />
    <rect
       style="fill:#ff0000;stroke-width:0.149791"
       id="rect442-3-7-9-0-9-3-5-9-5"
       width="57.488819"
       height="9.5063276"
       x="-546.01587"
       y="305.01309"
       ry="0"
       transform="matrix(-0.8362535,-0.54834304,0,1,0,0)"
       inkscape:transform-center-x="-0.097398002"
       inkscape:transform-center-y="0.088427595" />
    <rect
       style="fill:#ff0000;stroke-width:0.149791"
       id="rect442-3-7-9-0-9-3-5-9-5-7"
       width="57.488819"
       height="9.5063276"
       x="-546.01587"
       y="346.56766"
       ry="0"
       transform="matrix(-0.8362535,-0.54834304,0,1,0,0)"
       inkscape:transform-center-x="-0.097398002"
       inkscape:transform-center-y="0.088452864" />
    <rect
       style="fill:#ff0000;stroke-width:0.149791"
       id="rect442-3-7-9-0-9-3-5-9-5-7-4"
       width="57.488819"
       height="9.5063276"
       x="-546.302"
       y="385.32291"
       ry="0"
       transform="matrix(-0.8362535,-0.54834304,0,1,0,0)"
       inkscape:transform-center-x="-0.097321"
       inkscape:transform-center-y="0.088364718" />
    <path
       id="rect442-5"
       style="fill:#ff0000;stroke-width:0.678261"
       inkscape:transform-center-x="0.48395985"
       inkscape:transform-center-y="0.28052647"
       d="m 760.12711,302.76738 c -0.044,0.007 -0.081,0.0143 -0.12505,0.0208 -0.004,0.0152 -0.008,0.0312 -0.0118,0.0466 0.0455,-0.0221 0.0911,-0.0447 0.13661,-0.0674 z m -12.95078,12.72239 c -0.32521,0.0546 -0.64996,0.1112 -0.97483,0.16726 -0.0945,0.0288 -0.188,0.0596 -0.28249,0.0884 0.0194,-9.3e-4 0.0385,-0.005 0.0578,-0.007 0.1667,-0.0345 0.33344,-0.0681 0.50016,-0.10237 0.0487,-0.0167 0.095,-0.0265 0.1366,-0.0279 0.008,-9.3e-4 0.0156,-0.002 0.0232,-0.003 0.17994,-0.0369 0.3596,-0.0746 0.53952,-0.11145 z m -23.06732,4.72091 c -0.0198,0.002 -0.0597,0.0109 -0.0788,0.014 0.0204,0.0471 0.0395,0.0948 0.0602,0.14174 0.008,-0.0518 0.0121,-0.10378 0.0184,-0.15565 z m 5.44844,0.16264 c -0.01,0.046 -0.0164,0.0833 -0.0254,0.13011 0.0118,-0.003 0.0233,-0.008 0.0348,-0.0119 -0.004,-0.0385 -0.006,-0.0791 -0.01,-0.11858 z m -30.57659,1.11286 -169.53625,55.86362 v 10.15514 l 168.94348,-55.6708 c 0.0454,-0.30306 0.10703,-0.60326 0.16903,-0.90376 0.058,-0.36111 0.13088,-0.72053 0.18294,-1.08266 0.0347,-0.2761 0.0341,-0.55267 0.0602,-0.8294 0.0522,-0.31594 0.0728,-0.63533 0.0857,-0.95489 0.0118,-0.33498 0.0134,-0.67084 0.0138,-1.00598 0,-0.43772 1.7e-4,-0.87493 0,-1.31266 -2.1e-4,-0.68961 -0.002,-1.37811 -0.002,-2.06775 -0.008,-0.73043 0.0457,-1.46143 0.0833,-2.19086 z" />
    <rect
       style="fill:#ff0000;stroke-width:0.257783"
       id="rect442-3-7-9-0-9-3-5-9-5-7-3"
       width="97.294662"
       height="10.366353"
       x="-947.63159"
       y="-163.30899"
       ry="0"
       transform="matrix(-0.82137054,-0.57039498,0,1,0,0)"
       inkscape:transform-center-x="-0.16138858"
       inkscape:transform-center-y="0.15515926" />
    <rect
       style="fill:#ff0000;stroke-width:0.218414"
       id="rect442-3-7-9-0-9-3-5-9-5-7-3-1"
       width="112.55915"
       height="11.500475"
       x="589.00836"
       y="601.13617"
       ry="0"
       transform="matrix(0.95060589,-0.31040045,0,1,0,0)"
       inkscape:transform-center-x="0.21441128"
       inkscape:transform-center-y="0.096923767" />
    <rect
       style="fill:#ff0000;stroke-width:0.218414"
       id="rect442-3-7-9-0-9-3-5-9-5-7-3-1-2"
       width="112.55915"
       height="11.500475"
       x="588.99176"
       y="654.54791"
       ry="0"
       transform="matrix(0.95060589,-0.31040045,0,1,0,0)"
       inkscape:transform-center-x="0.21447013"
       inkscape:transform-center-y="0.096964255" />
    <rect
       style="fill:#ff0000;stroke-width:0.218414"
       id="rect442-3-7-9-0-9-3-5-9-5-7-3-1-5"
       width="112.55915"
       height="11.500475"
       x="588.99176"
       y="682.23297"
       ry="0"
       transform="matrix(0.95060589,-0.31040045,0,1,0,0)"
       inkscape:transform-center-x="0.21447013"
       inkscape:transform-center-y="0.096989509" />
    <rect
       style="fill:#ff0000;stroke-width:0.218414"
       id="rect442-3-7-9-0-9-3-5-9-5-7-3-1-0"
       width="112.55915"
       height="11.500475"
       x="588.99176"
       y="709.23853"
       ry="0"
       transform="matrix(0.95060589,-0.31040045,0,1,0,0)"
       inkscape:transform-center-x="0.21443573"
       inkscape:transform-center-y="0.096911996" />
    <rect
       style="fill:#ff0000;stroke-width:0.218414"
       id="rect442-3-7-9-0-9-3-5-9-5-7-3-1-1"
       width="112.55915"
       height="11.500475"
       x="588.8136"
       y="762.17535"
       ry="0"
       transform="matrix(0.95060589,-0.31040045,0,1,0,0)"
       inkscape:transform-center-x="0.21449978"
       inkscape:transform-center-y="0.096971996" />
    <rect
       style="fill:#ff0000;stroke-width:0.218414"
       id="rect442-3-7-9-0-9-3-5-9-5-7-3-1-17"
       width="112.55915"
       height="11.500475"
       x="588.99176"
       y="815.56244"
       ry="0"
       transform="matrix(0.95060589,-0.31040045,0,1,0,0)"
       inkscape:transform-center-x="0.21447013"
       inkscape:transform-center-y="0.096974101" />
    <rect
       style="fill:#ff0000;stroke-width:0.218414"
       id="rect442-3-7-9-0-9-3-5-9-5-7-3-1-6"
       width="112.55915"
       height="11.500475"
       x="588.99176"
       y="843.2475"
       ry="0"
       transform="matrix(0.95060589,-0.31040045,0,1,0,0)"
       inkscape:transform-center-x="0.21447013"
       inkscape:transform-center-y="0.09699357" />
    <rect
       style="fill:#ff0000;stroke-width:0.218414"
       id="rect442-3-7-9-0-9-3-5-9-5-7-3-1-3"
       width="112.55915"
       height="11.500475"
       x="589.1698"
       y="895.78528"
       ry="0"
       transform="matrix(0.95060589,-0.31040045,0,1,0,0)"
       inkscape:transform-center-x="0.2144931"
       inkscape:transform-center-y="0.096873044" />
    <rect
       style="fill:#ff0000;stroke-width:0.110429"
       id="rect442-3-7-9-0-9-3-5-9-5-7-3-3"
       width="38.179802"
       height="9.3550158"
       x="-890.07568"
       y="-94.220383"
       ry="0"
       transform="matrix(-0.84220815,-0.53915252,0,1,0,0)"
       inkscape:transform-center-x="-0.072811832"
       inkscape:transform-center-y="0.064561177" />
    <rect
       style="fill:#ff0000;stroke-width:0.110429"
       id="rect442-3-7-9-0-9-3-5-9-5-7-3-3-4"
       width="38.179802"
       height="9.3550158"
       x="-889.86267"
       y="-41.081432"
       ry="0"
       transform="matrix(-0.84220815,-0.53915252,0,1,0,0)"
       inkscape:transform-center-x="-0.072938711"
       inkscape:transform-center-y="0.064645495" />
    <rect
       style="fill:#ff0000;stroke-width:0.110429"
       id="rect442-3-7-9-0-9-3-5-9-5-7-3-3-2"
       width="38.179802"
       height="9.3550158"
       x="-889.72046"
       y="-13.381894"
       ry="0"
       transform="matrix(-0.84220815,-0.53915252,0,1,0,0)"
       inkscape:transform-center-x="-0.072851952"
       inkscape:transform-center-y="0.06458372" />
    <rect
       style="fill:#ff0000;stroke-width:0.110429"
       id="rect442-3-7-9-0-9-3-5-9-5-7-3-3-6"
       width="38.179802"
       height="9.3550158"
       x="-889.29419"
       y="40.052143"
       ry="0"
       transform="matrix(-0.84220815,-0.53915252,0,1,0,0)"
       inkscape:transform-center-x="-0.072961096"
       inkscape:transform-center-y="0.064656788" />
    <rect
       style="fill:#ff0000;stroke-width:0.110429"
       id="rect442-3-7-9-0-9-3-5-9-5-7-3-3-7"
       width="38.179802"
       height="9.3550158"
       x="-889.15192"
       y="92.852524"
       ry="0"
       transform="matrix(-0.84220815,-0.53915252,0,1,0,0)"
       inkscape:transform-center-x="-0.07282293"
       inkscape:transform-center-y="0.064573929" />
    <rect
       style="fill:#ff0000;stroke-width:0.110429"
       id="rect442-3-7-9-0-9-3-5-9-5-7-3-3-20"
       width="38.179802"
       height="9.3550158"
       x="-889.00983"
       y="119.59126"
       ry="0"
       transform="matrix(-0.84220815,-0.53915252,0,1,0,0)"
       inkscape:transform-center-x="-0.072899981"
       inkscape:transform-center-y="0.064610726" />
    <rect
       style="fill:#ff0000;stroke-width:0.110429"
       id="rect442-3-7-9-0-9-3-5-9-5-7-3-3-9"
       width="38.179802"
       height="9.3550158"
       x="-889.86267"
       y="173.65675"
       ry="0"
       transform="matrix(-0.84220815,-0.53915252,0,1,0,0)"
       inkscape:transform-center-x="-0.072938711"
       inkscape:transform-center-y="0.064641794" />
    <rect
       style="fill:#ff0000;stroke-width:0.110429"
       id="rect442-3-7-9-0-9-3-5-9-5-7-3-3-5"
       width="38.179802"
       height="9.3550158"
       x="-889.57837"
       y="200.35204"
       ry="0"
       transform="matrix(-0.84220815,-0.53915252,0,1,0,0)"
       inkscape:transform-center-x="-0.072929002"
       inkscape:transform-center-y="0.064646128" />
    <rect
       style="fill:#ff0000;stroke-width:0.110429"
       id="rect442-3-7-9-0-9-3-5-9-5-7-3-3-98"
       width="38.179802"
       height="9.3550158"
       x="-889.43622"
       y="228.05162"
       ry="0"
       transform="matrix(-0.84220815,-0.53915252,0,1,0,0)"
       inkscape:transform-center-x="-0.072893644"
       inkscape:transform-center-y="0.064633478" />
  </g>
</svg>
