<?xml version="1.0" encoding="UTF-8" standalone="no"?>
<svg
   width="682"
   height="682"
   viewBox="0 0 682 682"
   fill="none"
   version="1.1"
   id="svg19"
   sodipodi:docname="telegram_black.svg"
   inkscape:version="1.2 (dc2aedaf03, 2022-05-15)"
   xmlns:inkscape="http://www.inkscape.org/namespaces/inkscape"
   xmlns:sodipodi="http://sodipodi.sourceforge.net/DTD/sodipodi-0.dtd"
   xmlns="http://www.w3.org/2000/svg"
   xmlns:svg="http://www.w3.org/2000/svg">
  <defs
     id="defs23" />
  <sodipodi:namedview
     id="namedview21"
     pagecolor="#505050"
     bordercolor="#eeeeee"
     borderopacity="1"
     inkscape:showpageshadow="0"
     inkscape:pageopacity="0"
     inkscape:pagecheckerboard="0"
     inkscape:deskcolor="#505050"
     showgrid="false"
     inkscape:zoom="0.59677421"
     inkscape:cx="482.59458"
     inkscape:cy="490.97296"
     inkscape:window-width="1920"
     inkscape:window-height="1017"
     inkscape:window-x="-8"
     inkscape:window-y="-8"
     inkscape:window-maximized="1"
     inkscape:current-layer="svg19" />
  <circle
     style="opacity:0.9;fill:#ffffff;stroke-width:8.01683"
     id="path427"
     cx="335.62839"
     cy="336.25677"
     r="335" />
  <path
     style="fill:#333333;stroke-width:1.18723"
     d="m 424.61782,572.8581 c -3.16186,-1.04252 -7.63466,-3.02586 -9.93919,-4.40739 -3.01955,-1.81016 -67.42168,-58.45105 -85.11693,-74.85927 -0.69545,-0.64455 -12.66502,10.70957 -30.61672,29.04154 -30.0761,30.71305 -35.79195,35.38986 -46.5731,38.10684 -14.68307,3.70034 -30.59954,-4.58606 -39.24441,-20.43158 -1.82921,-3.35265 -14.09274,-40.29746 -27.35245,-82.40108 -13.22013,-41.97796 -24.32996,-76.6683 -24.68852,-77.08965 -0.35845,-0.42129 -20.49708,-7.05322 -44.75229,-14.73757 -50.9236,-16.1332 -58.208015,-19.52793 -64.087922,-29.8666 -2.813437,-4.94691 -3.559428,-7.58746 -3.559428,-12.59926 0,-11.79024 5.640208,-20.20029 18.070946,-26.94533 C 74.167803,292.648 483.3819,118.85494 494.43665,115.03373 c 24.05152,-8.31374 44.90339,8.24046 44.90339,35.6486 0,10.42191 -69.21234,388.64173 -72.87402,398.22983 -3.43777,9.00186 -11.2418,18.31765 -18.50955,22.09548 -6.57137,3.4158 -16.26078,4.18404 -23.33865,1.85046 z m 14.49492,-32.2941 c 1.59432,-2.02152 3.2574,-6.67516 4.25436,-11.90449 0.90047,-4.72202 16.75656,-91.68167 35.23663,-193.24368 25.4383,-139.80401 33.36588,-185.44513 32.63691,-187.89789 -0.69412,-2.33443 -1.87559,-3.34336 -4.22891,-3.61062 -2.16034,-0.24535 -74.26507,29.73797 -212.99822,88.57089 -115.35283,48.91799 -210.110954,89.37437 -210.573644,89.90312 -0.694522,0.79355 84.324764,28.5783 87.162884,28.48524 0.49245,-0.0157 57.03088,-31.88192 125.64092,-70.81281 68.61001,-38.9309 126.00877,-70.78346 127.55287,-70.78346 9.13464,0 14.49289,7.44832 13.8596,19.26533 -0.12068,2.37126 -19.63528,26.0666 -76.83492,93.32644 -42.16552,49.58155 -76.66462,90.49565 -76.66462,90.9202 0,1.26711 138.7034,125.06109 143.64559,128.20503 5.86827,3.73295 8.09843,3.64949 11.31055,-0.4233 z M 280.24541,500.14312 c 14.20388,-14.50117 25.69987,-26.75584 25.54656,-27.23264 -0.40736,-1.26483 -33.77038,-31.0297 -34.1893,-30.50129 -0.19478,0.24562 -4.3692,18.68933 -9.27684,40.98613 -4.90773,22.29678 -9.15,41.3119 -9.42735,42.25585 -0.27711,0.94391 -0.0495,1.52307 0.50866,1.28694 0.5573,-0.23611 12.6344,-12.29385 26.83814,-26.79501 z m -40.55096,-43.77423 c 5.20377,-23.71245 10.06701,-44.67854 10.80748,-46.59132 0.74009,-1.91278 24.87942,-31.54072 53.64225,-65.83987 28.76296,-34.29917 52.29618,-62.64545 52.29618,-62.99173 0,-0.34627 -37.4719,20.59456 -83.27101,46.53527 -77.11077,43.6757 -83.23889,47.38146 -82.83511,50.0917 0.87247,5.85658 38.47019,123.76081 39.17422,122.84852 0.39932,-0.51644 4.98232,-20.34011 10.18599,-44.05257 z"
     id="path256" />
</svg>
