<?xml version="1.0" encoding="UTF-8" standalone="no"?>
<svg
   width="512"
   height="512"
   x="0"
   y="0"
   viewBox="0 0 512.00011 512"
   style="enable-background:new 0 0 512 512"
   xml:space="preserve"
   class=""
   version="1.1"
   id="svg23"
   sodipodi:docname="telegram.svg"
   inkscape:version="1.2 (dc2aedaf03, 2022-05-15)"
   xmlns:inkscape="http://www.inkscape.org/namespaces/inkscape"
   xmlns:sodipodi="http://sodipodi.sourceforge.net/DTD/sodipodi-0.dtd"
   xmlns="http://www.w3.org/2000/svg"
   xmlns:svg="http://www.w3.org/2000/svg"><defs
   id="defs27" /><sodipodi:namedview
   id="namedview25"
   pagecolor="#505050"
   bordercolor="#eeeeee"
   borderopacity="1"
   inkscape:showpageshadow="0"
   inkscape:pageopacity="0"
   inkscape:pagecheckerboard="0"
   inkscape:deskcolor="#505050"
   showgrid="false"
   inkscape:zoom="4.4967572"
   inkscape:cx="154.33344"
   inkscape:cy="82.059134"
   inkscape:window-width="1920"
   inkscape:window-height="1017"
   inkscape:window-x="-8"
   inkscape:window-y="-8"
   inkscape:window-maximized="1"
   inkscape:current-layer="svg23" />  <path
   style="fill:#d40000;stroke-width:0.129666"
   d="m 41.596348,49.988415 c -0.348001,-0.112993 -0.840246,-0.327955 -1.093874,-0.477691 -0.332322,-0.196194 -7.420253,-6.335177 -9.367747,-8.113571 -0.0765,-0.06986 -1.39388,1.160751 -3.369602,3.147648 -3.310095,3.328812 -3.939167,3.835704 -5.125712,4.130184 -1.615986,0.401058 -3.367694,-0.49706 -4.319138,-2.214462 -0.201309,-0.363376 -1.551002,-4.367614 -3.010331,-8.930986 -1.454972,-4.549751 -2.677691,-8.309638 -2.717153,-8.355305 -0.03946,-0.04566 -2.255855,-0.764461 -4.9253195,-1.597323 -5.6045179,-1.748585 -6.40622,-2.11652 -7.05334794,-3.237071 -0.30963996,-0.536166 -0.39174108,-0.82236 -0.39174108,-1.36556 0,-1.277878 0.62074607,-2.189395 1.98883922,-2.920453 C 3.026747,19.61804 48.063768,0.7816017 49.28042,0.36744282 c 2.647052,-0.90107924 4.941962,0.89313698 4.941962,3.86374668 0,1.1295727 -7.617333,42.1226625 -8.020335,43.1618625 -0.37836,0.975658 -1.237244,1.985345 -2.03712,2.394801 -0.72323,0.37022 -1.789616,0.453485 -2.568579,0.200562 z m 1.595275,-3.500171 c 0.175468,-0.219103 0.358504,-0.723486 0.468219,-1.290261 0.09907,-0.511793 1.844195,-9.936856 3.878047,-20.944582 C 50.337563,9.1008419 51.210058,4.1540629 51.129819,3.8882204 51.053451,3.6352058 50.923397,3.5258531 50.664404,3.4968868 50.42665,3.470296 42.490982,6.720015 27.222382,13.09658 14.526958,18.398521 4.0981295,22.783359 4.0472071,22.840666 c -0.076435,0.08602 9.2805619,3.097441 9.5929159,3.087354 0.0542,-0.0017 6.276665,-3.4555 13.827701,-7.674999 7.551034,-4.219497 13.868197,-7.671814 14.038138,-7.671814 1.005322,0 1.595048,0.807281 1.525346,2.088059 -0.01398,0.257007 -2.161006,2.825211 -8.456246,10.115121 -4.640625,5.373861 -8.4375,9.808307 -8.4375,9.854323 0,0.137338 15.265311,13.554657 15.809251,13.895411 0.645844,0.404592 0.891294,0.395547 1.24481,-0.04588 z m -17.484512,-4.38099 c 1.563231,-1.571699 2.828437,-2.899916 2.811568,-2.951593 -0.04475,-0.13709 -3.716673,-3.363132 -3.762772,-3.305858 -0.02142,0.02661 -0.480869,2.025629 -1.020993,4.44225 -0.540125,2.416622 -1.007021,4.477564 -1.037548,4.579873 -0.03052,0.102309 -0.0053,0.165078 0.056,0.139487 0.06132,-0.02559 1.390512,-1.332462 2.953742,-2.904159 z m -4.462939,-4.744439 c 0.572704,-2.570059 1.107948,-4.842454 1.189432,-5.049768 0.08148,-0.207315 2.738165,-3.418519 5.903735,-7.136009 3.165569,-3.717489 5.75558,-6.789782 5.75558,-6.827315 0,-0.03753 -4.124068,2.232128 -9.164594,5.043694 -8.486599,4.733759 -9.161045,5.135407 -9.116606,5.429153 0.09603,0.634762 4.233918,13.413728 4.311412,13.314851 0.04387,-0.05598 0.548339,-2.204548 1.121041,-4.774606 z"
   id="path256" /></svg>
