<?xml version="1.0" encoding="UTF-8" standalone="no"?>
<!-- Created with Inkscape (http://www.inkscape.org/) -->

<svg
   version="1.1"
   id="svg15"
   width="1680"
   height="945"
   viewBox="0 0 1680 945"
   sodipodi:docname="vk_black.svg"
   inkscape:version="1.2 (dc2aedaf03, 2022-05-15)"
   xmlns:inkscape="http://www.inkscape.org/namespaces/inkscape"
   xmlns:sodipodi="http://sodipodi.sourceforge.net/DTD/sodipodi-0.dtd"
   xmlns="http://www.w3.org/2000/svg"
   xmlns:svg="http://www.w3.org/2000/svg">
  <defs
     id="defs19" />
  <sodipodi:namedview
     id="namedview17"
     pagecolor="#505050"
     bordercolor="#eeeeee"
     borderopacity="1"
     inkscape:showpageshadow="0"
     inkscape:pageopacity="0"
     inkscape:pagecheckerboard="0"
     inkscape:deskcolor="#505050"
     showgrid="false"
     inkscape:zoom="0.43068785"
     inkscape:cx="1235.2334"
     inkscape:cy="475.98278"
     inkscape:window-width="1920"
     inkscape:window-height="1017"
     inkscape:window-x="-8"
     inkscape:window-y="-8"
     inkscape:window-maximized="1"
     inkscape:current-layer="g21" />
  <g
     inkscape:groupmode="layer"
     inkscape:label="Image"
     id="g21">
    <circle
       style="opacity:0.9;fill:#ffffff;stroke-width:11.1277"
       id="path427"
       cx="469.85336"
       cy="470.67429"
       r="464.99384" />
    <path
       style="fill:#333333;stroke-width:2.93891"
       d="M 425.20297,686.82456 C 330.04291,663.49917 248.2823,586.90687 185.72333,462.48326 160.34155,412.00167 141.59802,351.66165 141.59802,320.43378 c 0,-14.89468 0.59705,-16.26883 8.49209,-19.53904 5.68445,-2.35454 22.778,-3.2012 51.69745,-2.56081 50.35363,1.11598 49.67046,0.72911 60.18843,34.03773 30.2605,95.83077 76.16023,177.05143 100.05589,177.05143 13.63846,0 14.67911,-5.1858 14.67911,-73.1493 0,-70.56263 -2.04671,-82.92049 -17.57472,-106.12424 -10.5654,-15.78784 -11.06034,-21.64788 -2.34375,-27.75307 9.22008,-6.4582 133.28602,-6.8142 142.05636,-0.40919 5.35468,3.91153 5.79494,9.33782 7.17411,88.40984 1.3801,79.07276 1.81905,84.4983 7.17429,88.40853 12.1715,8.88808 29.15828,3.17219 46.00966,-15.48151 22.03345,-24.39022 57.25897,-79.0947 84.17169,-130.71739 17.6973,-33.94585 19.43805,-34.78675 72.02829,-34.78675 48.23344,0 53.84945,2.46057 51.11696,22.39671 -2.86455,20.89831 -27.10598,65.0638 -77.58385,141.34939 -13.0667,19.74661 -24.58962,38.52641 -25.60721,41.73245 -2.64488,8.33269 3.42068,18.42566 32.93049,54.79636 47.44239,58.47186 71.32299,96.10437 71.32299,112.3944 0,16.3317 -5.80722,18.206 -56.40915,18.206 -54.63938,0 -49.16026,2.92797 -89.65639,-47.91315 -47.06984,-59.09402 -74.44365,-82.41904 -96.85487,-82.52897 -17.95006,-0.093 -18.6429,2.1453 -18.6429,60.10418 0,51.11751 -0.1674,52.57499 -7.08725,60.62273 -6.84936,7.96851 -8.10949,8.26313 -37.47125,8.76476 -16.71095,0.28458 -33.0287,-0.13019 -36.26152,-0.92254 z"
       id="path321" />
  </g>
</svg>
