<?xml version="1.0" encoding="UTF-8" standalone="no"?>
<svg
   width="682"
   height="682"
   viewBox="0 0 682 682"
   fill="none"
   version="1.1"
   id="svg19"
   sodipodi:docname="whatsapp.svg"
   inkscape:version="1.2 (dc2aedaf03, 2022-05-15)"
   xmlns:inkscape="http://www.inkscape.org/namespaces/inkscape"
   xmlns:sodipodi="http://sodipodi.sourceforge.net/DTD/sodipodi-0.dtd"
   xmlns="http://www.w3.org/2000/svg"
   xmlns:svg="http://www.w3.org/2000/svg">
  <defs
     id="defs23" />
  <sodipodi:namedview
     id="namedview21"
     pagecolor="#505050"
     bordercolor="#eeeeee"
     borderopacity="1"
     inkscape:showpageshadow="0"
     inkscape:pageopacity="0"
     inkscape:pagecheckerboard="0"
     inkscape:deskcolor="#505050"
     showgrid="false"
     inkscape:zoom="4.7741937"
     inkscape:cx="75.195943"
     inkscape:cy="70.797295"
     inkscape:window-width="1920"
     inkscape:window-height="1017"
     inkscape:window-x="-8"
     inkscape:window-y="-8"
     inkscape:window-maximized="1"
     inkscape:current-layer="svg19" />
  <path
     fill-rule="evenodd"
     clip-rule="evenodd"
     d="M 40.220298,9.5226226 C 35.990061,5.0267558 30.364244,2.5497028 24.370826,2.5470676 c -12.350053,0 -22.4012006,10.6696154 -22.4061654,23.7835074 -0.00167,4.192097 1.0299536,8.284272 2.990783,11.891321 L 1.7767162,50.547068 13.654538,47.239485 c 3.272834,1.895227 6.957468,2.893928 10.707165,2.89513 h 0.0094 c 12.348638,0 22.400938,-10.670554 22.405606,-23.784971 0.0024,-6.355712 -2.325969,-12.331402 -6.556416,-16.8270214 z M 24.370826,46.117739 h -0.0077 c -3.341582,-0.0015 -6.6188,-0.954859 -9.47849,-2.755719 L 14.204879,42.933426 7.1563736,44.896295 9.0377491,37.601115 8.5947613,36.853159 C 6.7305426,33.705483 5.7461251,30.067427 5.7477798,26.332076 5.751637,15.432099 14.106084,6.5642589 24.378252,6.5642589 c 4.974277,0.00178 9.650189,2.0607116 13.166157,5.7975641 3.515968,3.736852 5.45114,8.703781 5.449443,13.986319 -0.0044,10.900804 -8.358283,19.769597 -18.623026,19.769597 z M 34.585923,31.311318 c -0.559675,-0.297666 -3.312295,-1.734946 -3.825649,-1.93359 -0.512788,-0.198344 -0.8864,-0.297065 -1.259305,0.297666 -0.3734,0.594731 -1.446075,1.93359 -1.77287,2.329977 -0.326725,0.396688 -0.652955,0.446537 -1.212913,0.148871 -0.559958,-0.297366 -2.363733,-0.925205 -4.502294,-2.949933 -1.664175,-1.575866 -2.787698,-3.522068 -3.114423,-4.116799 -0.326229,-0.595332 -0.0028,-0.885941 0.24561,-1.212885 0.606067,-0.798931 1.212912,-1.636525 1.399471,-2.032912 0.186841,-0.396688 0.09328,-0.743827 -0.04689,-1.041193 -0.139671,-0.297365 -1.259305,-3.222675 -1.725701,-4.413038 -0.454868,-1.158382 -0.916031,-1.001929 -1.25987,-1.020097 -0.326229,-0.01727 -0.699629,-0.0208 -1.073029,-0.0208 -0.373117,0 -0.979679,0.148571 -1.493032,0.743827 -0.513001,0.595032 -1.959147,2.032611 -1.959147,4.957921 0,2.925309 2.006104,5.751296 2.285942,6.147983 0.279838,0.396688 3.947853,6.39963 9.56377,8.973596 1.335681,0.612899 2.378371,0.978281 3.191647,1.252148 1.341269,0.452393 2.561394,0.388505 3.526223,0.235581 1.075716,-0.170792 3.312012,-1.437881 3.778974,-2.825987 0.466396,-1.388407 0.466396,-2.578095 0.326159,-2.826287 -0.139601,-0.247818 -0.513,-0.396388 -1.072676,-0.694054 z"
     fill="#b30526"
     id="path17"
     style="stroke-width:0.0728641" />
  <path
     style="fill:#d40000;stroke-width:0.0491681"
     d="m 1.8404789,50.407413 c 0.014464,-0.05268 0.7267496,-2.815084 1.5828581,-6.138677 L 4.9798978,38.225839 4.8488276,37.971936 C 3.0880851,34.561109 2.1724268,31.114242 2.0159588,27.308001 1.811271,22.328763 3.1124618,17.402046 5.7443924,13.190983 7.3622891,10.602365 9.6117999,8.2229718 12.073697,6.4962367 16.449794,3.4269136 21.774789,2.0832241 26.984934,2.7335904 c 5.059585,0.6315723 9.617948,2.9906909 13.2363,6.8502665 1.782899,1.9017601 3.100329,3.8461491 4.202436,6.2023581 2.128451,4.550445 2.810752,9.596113 1.984883,14.678371 -1.203597,7.406727 -5.802351,13.883515 -12.234984,17.231494 -2.513208,1.308043 -5.183387,2.08429 -8.045558,2.338923 -0.804143,0.07154 -2.734604,0.0706 -3.522907,-0.0017 -2.913285,-0.267251 -5.559956,-1.040302 -8.102804,-2.366701 -0.450426,-0.23495 -0.845892,-0.427183 -0.878814,-0.427183 -0.03292,0 -2.642201,0.718525 -5.7983976,1.596721 -3.1561957,0.878196 -5.7998209,1.612549 -5.8747223,1.631895 -0.1181598,0.03052 -0.1327039,0.0225 -0.1098872,-0.0606 z M 26.616439,46.000712 c 3.941497,-0.560758 7.267392,-2.166695 10.187407,-4.919077 2.213696,-2.086611 4.015905,-4.893782 5.049092,-7.864607 0.525642,-1.511435 0.826639,-2.839214 1.040229,-4.58873 0.122597,-1.004204 0.122535,-3.600489 -9.6e-5,-4.621038 -0.460929,-3.835285 -1.80275,-7.20378 -4.039153,-10.139811 -0.52855,-0.6939 -1.600218,-1.870356 -2.254234,-2.474655 C 33.59524,8.616744 29.94991,6.9842873 25.921265,6.6107703 25.060195,6.5309359 22.840891,6.5757322 22.057625,6.6887572 17.095822,7.4047441 12.806477,9.9782941 9.7392097,14.079644 7.5988149,16.941642 6.2790371,20.344301 5.83938,24.134211 c -0.1192176,1.027675 -0.1188099,3.377818 7.65e-4,4.417916 0.3734208,3.248085 1.2441746,5.787109 3.0215274,8.810442 l 0.1492637,0.253903 -0.9339216,3.619338 c -0.513657,1.990636 -0.922052,3.631999 -0.9075453,3.647474 0.014509,0.01548 1.6013186,-0.410503 3.5262468,-0.946617 l 3.49987,-0.974751 0.681851,0.421636 c 2.423097,1.49837 5.003627,2.384034 7.822879,2.684893 0.685687,0.07317 3.235719,0.02907 3.916122,-0.06773 z"
     id="path252" />
  <path
     style="fill:#d40000;stroke-width:0.0491681"
     d="M 29.270063,37.685958 C 28.313237,37.557849 26.180316,36.795004 24.524522,35.988703 21.737089,34.631342 18.899097,32.122677 16.473558,28.871992 15.846191,28.0312 14.81593,26.488868 14.479044,25.886143 13.127361,23.467842 12.717572,21.28459 13.227724,19.21942 c 0.290173,-1.174666 0.797412,-2.079364 1.734333,-3.093315 0.61494,-0.6655 1.065385,-0.809556 2.31324,-0.739798 0.864982,0.04836 0.943941,0.08075 1.21286,0.497672 0.112317,0.174129 1.574606,3.818881 2.052189,5.115073 0.123807,0.336021 0.111705,0.539924 -0.05171,0.8713 -0.149209,0.302561 -0.700891,1.109252 -1.305117,1.908395 -0.418012,0.552858 -0.492608,0.742178 -0.414437,1.051835 0.05894,0.233502 0.913585,1.631214 1.405881,2.299235 1.034429,1.403668 2.117445,2.478432 3.477497,3.450999 0.714871,0.511202 1.349688,0.877674 2.341727,1.351853 1.187749,0.567726 1.313369,0.568699 1.802946,0.01397 0.346389,-0.392486 1.175505,-1.464461 1.55839,-2.014866 0.641966,-0.922837 0.687615,-0.918823 3.016899,0.265259 1.667232,0.847533 2.930147,1.518975 3.10073,1.648539 0.204889,0.155619 0.266278,0.421646 0.231335,1.002477 -0.05264,0.875059 -0.332069,1.969616 -0.621566,2.43478 -0.510457,0.820202 -1.790149,1.765306 -2.955039,2.182416 -0.682796,0.244488 -1.949552,0.342322 -2.857814,0.220715 z"
     id="path254" />
</svg>
