<?xml version="1.0" encoding="UTF-8" standalone="no"?>
<svg
   width="682"
   height="682"
   viewBox="0 0 682 682"
   fill="none"
   version="1.1"
   id="svg19"
   sodipodi:docname="whatsapp_black.svg"
   inkscape:version="1.2 (dc2aedaf03, 2022-05-15)"
   xmlns:inkscape="http://www.inkscape.org/namespaces/inkscape"
   xmlns:sodipodi="http://sodipodi.sourceforge.net/DTD/sodipodi-0.dtd"
   xmlns="http://www.w3.org/2000/svg"
   xmlns:svg="http://www.w3.org/2000/svg">
  <defs
     id="defs23" />
  <sodipodi:namedview
     id="namedview21"
     pagecolor="#505050"
     bordercolor="#eeeeee"
     borderopacity="1"
     inkscape:showpageshadow="0"
     inkscape:pageopacity="0"
     inkscape:pagecheckerboard="0"
     inkscape:deskcolor="#505050"
     showgrid="false"
     inkscape:zoom="0.8439662"
     inkscape:cx="465.65846"
     inkscape:cy="407.59926"
     inkscape:window-width="1920"
     inkscape:window-height="1017"
     inkscape:window-x="-8"
     inkscape:window-y="-8"
     inkscape:window-maximized="1"
     inkscape:current-layer="svg19" />
  <circle
     style="opacity:0.9;fill:#ffffff;stroke-width:8.01682"
     id="path427"
     cx="339.60196"
     cy="342.18118"
     r="335" />
  <path
     fill-rule="evenodd"
     clip-rule="evenodd"
     d="m 504.02147,174.6038 c -42.02268,-44.66142 -97.90899,-69.26818 -157.44693,-69.29435 -122.68387,0 -222.53081,105.9907 -222.58009,236.26257 -0.0201,41.64381 10.23142,82.29498 29.71005,118.12695 l -31.57712,122.43688 117.99296,-32.85719 c 32.5119,18.82698 69.11457,28.74795 106.36362,28.75986 h 0.0938 c 122.6699,0 222.52819,-105.99997 222.57469,-236.27707 0.0134,-63.13688 -23.1059,-122.49869 -65.13071,-167.15765 z M 346.57454,538.13541 h -0.0804 c -33.19475,-0.0201 -65.75031,-9.48547 -94.15816,-27.37499 l -6.75255,-4.25766 -70.01906,19.49891 18.68931,-72.46942 -4.4005,-7.43012 c -18.51895,-31.26864 -28.29807,-67.40866 -28.28157,-104.51521 0.0402,-108.27907 83.03035,-196.37116 185.07288,-196.37116 49.41398,0.0174 95.86387,20.47086 130.79111,57.59232 34.9271,37.12145 54.15101,86.46234 54.13412,138.93845 -0.0403,108.28731 -83.03015,196.38888 -184.99907,196.38888 z M 448.0502,391.05013 c -5.55966,-2.95698 -32.90383,-17.23474 -38.00361,-19.20805 -5.09388,-1.97032 -8.80527,-2.951 -12.5097,2.95697 -3.70926,5.908 -14.36521,19.20807 -17.61149,23.14574 -3.24561,3.94064 -6.4864,4.43583 -12.04901,1.47886 -5.56248,-2.954 -23.48096,-9.19088 -44.72518,-29.30429 -16.53172,-15.65447 -27.69271,-34.98782 -30.93833,-40.8958 -3.24065,-5.91395 -0.0268,-8.80083 2.43987,-12.04866 6.02062,-7.93649 12.04889,-16.25704 13.90224,-20.1947 1.85604,-3.94065 0.92728,-7.38909 -0.46632,-10.34309 -1.38743,-2.95399 -12.50984,-32.01367 -17.14289,-43.8386 -4.51861,-11.50724 -9.0998,-9.95306 -12.51547,-10.13352 -3.24069,-0.17153 -6.95,-0.20663 -10.6593,-0.20663 -3.70654,0 -9.73204,1.47589 -14.8316,7.3891 -5.09618,5.91096 -19.46197,20.1917 -19.46197,49.2514 0,29.05967 19.92837,57.1327 22.70827,61.07332 2.7799,3.94067 39.21745,63.57319 95.0054,89.14267 13.26841,6.08846 23.62634,9.71812 31.70547,12.43868 13.32403,4.49401 25.44446,3.85933 35.02907,2.34023 10.68597,-1.69663 32.90103,-14.28373 37.53984,-28.07301 4.63318,-13.79228 4.63318,-25.6105 3.23999,-28.076 -1.38676,-2.4618 -5.09602,-3.93767 -10.65582,-6.89466 z"
     fill="#b30526"
     id="path17"
     style="opacity:1;fill:#333333;stroke-width:0.723824" />
</svg>
